<svg width="285" height="94" viewBox="0 0 285 94" fill="none" xmlns="http://www.w3.org/2000/svg">
<g clip-path="url(#clip0_2001_118)">
<path d="M87.9215 47.7163L88.396 47.7528C90.2575 47.8988 90.9145 48.2273 91.097 48.4463C91.243 48.5923 91.608 49.1763 91.608 51.3663V58.7028C91.608 59.0678 91.535 59.3233 91.389 59.4693C91.316 59.5423 90.951 59.8343 89.71 60.2723C89.126 60.4913 88.5055 60.6373 87.8485 60.7468C87.1915 60.8563 86.6075 60.8928 86.133 60.8928C83.286 60.8928 80.877 59.7613 78.906 57.4983C76.9715 55.2353 75.986 52.0233 75.986 47.9353C75.986 42.9713 76.9715 39.3943 78.906 37.2773C80.8405 35.1603 83.14 34.0653 85.695 34.0653C88.25 34.0653 90.221 34.9413 91.827 36.7663C92.703 37.8248 93.579 39.4308 94.4185 41.5843L94.5645 41.9128H96.3895L96.0245 31.1088H94.2725L94.1265 31.4373C93.9805 31.8388 93.798 32.1308 93.6155 32.3498C93.5425 32.4228 93.287 32.5688 92.6665 32.5688C92.5935 32.5688 92.192 32.4958 90.075 31.8388C88.469 31.3278 86.79 31.0723 85.111 31.0723C80.4755 31.0723 76.6795 32.8243 73.869 36.3283C71.314 39.5038 70 43.3363 70 47.7163C70 52.7168 71.6425 56.8048 74.8545 59.7613C77.7745 62.4623 81.388 63.8128 85.622 63.8128C87.9215 63.8128 90.3305 63.3383 92.776 62.4258C96.0975 61.1848 96.7545 60.4548 96.7545 59.7613V50.7093C96.7545 49.4318 96.9735 48.5558 97.4115 48.1908C97.5575 48.0813 97.9955 47.8258 99.2 47.7528L99.6745 47.7163V45.7818H87.9215V47.7163Z" fill="white" stroke="#030303" stroke-miterlimit="10"/>
<path d="M122.67 33.5542L123.144 33.5908C124.531 33.7368 125.517 34.1017 125.955 34.6127C126.21 34.9047 126.648 35.8537 126.648 38.9562V50.9282C126.648 53.7752 126.32 55.8557 125.699 57.2062C124.604 59.5422 122.487 60.6737 119.202 60.6737C116.246 60.6737 114.275 59.5787 113.253 57.3158C112.669 56.0382 112.413 54.2497 112.413 51.9137V37.2042C112.413 35.1967 112.742 34.5762 112.961 34.3572C113.18 34.1382 113.837 33.7732 115.808 33.6272L116.282 33.5908V31.6562H103.252V33.5908L103.726 33.6272C105.661 33.7732 106.318 34.1747 106.537 34.3937C106.756 34.6127 107.084 35.2332 107.084 37.2042V51.5852C107.084 54.5052 107.559 56.9142 108.471 58.7392C110.223 62.1337 113.508 63.8857 118.217 63.8857C122.998 63.8857 126.32 62.1337 128.072 58.6662C128.984 56.8047 129.459 54.2132 129.459 50.9647V38.9927C129.459 36.0362 129.86 35.0507 130.079 34.7222C130.371 34.3572 131.101 33.8462 132.963 33.6272L133.401 33.5908V31.6927H122.633V33.5542H122.67Z" fill="white" stroke="#030303" stroke-miterlimit="10"/>
<path d="M161.834 54.6526C160.812 57.1346 159.644 58.7041 158.403 59.3246C157.126 59.9816 155.045 60.3101 152.271 60.3101C149.059 60.3101 148.001 60.2006 147.672 60.0911C147.563 60.0546 147.234 59.9451 147.234 58.9961V48.1556H153.22C155.374 48.1556 156.031 48.5936 156.286 48.8491C156.578 49.1776 157.016 50.0171 157.381 52.0976L157.454 52.5356H159.389V40.8191H157.454L157.381 41.2571C157.016 43.3376 156.615 44.1771 156.323 44.5056C156.104 44.7611 155.41 45.1991 153.257 45.1991H147.271V35.4901C147.271 34.7966 147.38 34.6141 147.38 34.6141C147.38 34.6141 147.526 34.5046 148.147 34.5046H153.877C156.797 34.5046 157.929 34.9426 158.33 35.2711C158.732 35.6361 159.352 36.5121 159.754 38.8846L159.827 39.3226H161.834L161.652 31.6211H138.219V33.5556L138.693 33.5921C140.555 33.7381 141.175 34.1396 141.394 34.3586C141.577 34.5776 141.942 35.2346 141.942 37.1691V57.6456C141.942 59.7626 141.577 60.3101 141.431 60.4561C141.212 60.6386 140.591 61.0036 138.693 61.2226L138.255 61.2591V63.1571H161.944L164.134 54.2876H161.98L161.834 54.6526Z" fill="white" stroke="#030303" stroke-miterlimit="10"/>
<path d="M183.005 45.3445L179.282 42.8625C177.968 41.9865 176.946 41.1105 176.325 40.3075C175.741 39.5775 175.449 38.7015 175.449 37.643C175.449 36.5115 175.814 35.6355 176.544 34.9785C177.311 34.3215 178.187 33.993 179.245 33.993C180.632 33.993 182.019 34.5405 183.443 35.6355C184.866 36.7305 185.888 38.7015 186.545 41.512L186.655 41.9135H188.626L187.604 31H185.888L185.779 31.438C185.669 31.8395 185.56 32.168 185.414 32.3505C185.304 32.46 185.085 32.533 184.757 32.533C184.684 32.533 184.319 32.46 182.603 31.803C181.216 31.2555 179.975 31 178.953 31C176.508 31 174.464 31.8395 172.967 33.482C171.471 35.1245 170.704 37.205 170.704 39.6505C170.704 41.5485 171.361 43.264 172.639 44.8335C173.296 45.6365 174.208 46.4395 175.34 47.206L178.953 49.6515C180.997 51.0385 182.311 52.0605 182.932 52.7175C183.844 53.7395 184.282 54.871 184.282 56.258C184.282 57.7545 183.844 58.886 183.005 59.7255C182.129 60.565 181.07 60.9665 179.866 60.9665C177.53 60.9665 175.595 59.981 174.026 57.937C173.113 56.769 172.31 55.163 171.617 53.1555L171.507 52.7905H169.609L170.996 63.704H172.785L172.858 63.2295C172.894 62.901 173.004 62.6455 173.15 62.3535C173.223 62.2075 173.405 62.1345 173.697 62.1345C173.77 62.1345 174.135 62.2075 175.997 62.901C177.457 63.4485 178.88 63.7405 180.267 63.7405C182.968 63.7405 185.231 62.8645 186.983 61.1855C188.772 59.47 189.648 57.28 189.648 54.725C189.648 52.827 189.137 51.1115 188.115 49.7245C187.056 48.4105 185.377 46.914 183.005 45.3445Z" fill="white" stroke="#030303" stroke-miterlimit="10"/>
<path d="M214.468 49.761C213.482 48.4105 211.803 46.914 209.431 45.3445L205.708 42.8625C204.357 41.9865 203.372 41.1105 202.751 40.3075C202.167 39.5775 201.875 38.7015 201.875 37.643C201.875 36.5115 202.24 35.6355 202.97 34.9785C203.737 34.3215 204.613 33.993 205.671 33.993C207.058 33.993 208.445 34.5405 209.869 35.6355C211.292 36.7305 212.314 38.7015 212.971 41.512L213.081 41.9135H215.052L214.03 31H212.351L212.241 31.438C212.132 31.8395 212.022 32.168 211.876 32.3505C211.767 32.46 211.548 32.533 211.219 32.533C211.146 32.533 210.781 32.46 209.066 31.803C207.679 31.2555 206.438 31 205.416 31C202.97 31 200.926 31.8395 199.43 33.482C197.933 35.1245 197.167 37.205 197.167 39.6505C197.167 41.5485 197.824 43.264 199.101 44.8335C199.758 45.6365 200.671 46.4395 201.802 47.206L205.416 49.6515C207.46 51.0385 208.774 52.0605 209.394 52.7175C210.307 53.7395 210.745 54.871 210.745 56.258C210.745 57.7545 210.307 58.886 209.431 59.7255C208.555 60.565 207.496 60.9665 206.292 60.9665C203.956 60.9665 202.021 59.981 200.452 57.937C199.539 56.769 198.736 55.163 198.043 53.1555L197.933 52.7905H196.035L197.422 63.704H199.211L199.284 63.2295C199.32 62.901 199.43 62.6455 199.576 62.3535C199.649 62.2075 199.831 62.1345 200.123 62.1345C200.196 62.1345 200.561 62.2075 202.423 62.901C203.883 63.4485 205.306 63.7405 206.693 63.7405C209.394 63.7405 211.657 62.8645 213.409 61.1855C215.198 59.47 216.074 57.28 216.074 54.725C216.001 52.8635 215.49 51.1845 214.468 49.761Z" fill="white" stroke="#030303" stroke-miterlimit="10"/>
</g>
<defs>
<clipPath id="clip0_2001_118">
<rect width="146" height="94" fill="white" transform="translate(70)"/>
</clipPath>
</defs>
</svg>
