<svg width="285" height="94" viewBox="0 0 285 94" fill="none" xmlns="http://www.w3.org/2000/svg">
<g clip-path="url(#clip0_2001_136)">
<path d="M71.3048 27.2207H68.9742V36.5337C68.9742 40.0816 66.9765 41.1903 64.4239 41.1903C61.3164 41.1903 59.8736 39.6381 59.8736 36.5337V27.2207H57.543V36.9772C57.543 41.3011 60.5395 43.2968 64.4239 43.2968C68.7522 43.2968 71.3048 40.8577 71.3048 36.9772V27.2207Z" fill="white"/>
<path d="M88.0646 27.2207H85.8449V39.5272L76.3004 27.2207H74.3027V43.1859H76.5224V30.8794L86.0669 43.1859H88.0646V27.2207Z" fill="white"/>
<path d="M94.0572 27.2207H91.7266V43.1859H94.0572V27.2207Z" fill="white"/>
<path d="M107.599 27.2207H96.168V29.2164H100.829V43.1859H103.16V29.2164H107.599V27.2207Z" fill="white"/>
<path d="M118.808 27.2207H109.707V43.1859H119.03V41.1903H112.038V35.9794H118.586V33.9838H112.038V29.2164H118.808V27.2207Z" fill="white"/>
<path d="M127.241 27.2207H121.914V43.1859H127.241C132.79 43.1859 135.676 39.3055 135.676 35.2033C135.676 31.4338 133.123 27.2207 127.241 27.2207ZM124.134 41.1903V29.2164H126.797C131.126 29.2164 133.234 31.9881 133.234 35.2033C133.234 38.5294 131.015 41.1903 126.797 41.1903H124.134Z" fill="white"/>
<path d="M179.514 27.2207H177.184V43.1859H186.062V41.1903H179.514V27.2207Z" fill="white"/>
<path d="M210.368 27.2207H205.484V43.1859H207.815V36.312H210.701L215.029 43.1859H217.803C216.694 41.6337 213.031 35.6468 213.031 35.6468C213.364 35.5359 215.695 34.649 215.695 31.6555C215.584 28.8837 213.586 27.2207 210.368 27.2207ZM207.704 34.3164V29.2164H210.035C212.254 29.2164 213.142 30.3251 213.142 31.7664C213.142 33.0968 212.365 34.3164 210.035 34.3164H207.704Z" fill="white"/>
<path d="M151.549 27C146.444 27 142.781 30.5478 142.781 35.4261C142.781 38.7522 145.445 43.4087 151.327 43.4087C154.101 43.4087 155.766 42.8543 155.877 42.7435V40.4152C155.766 40.4152 153.991 41.1913 151.549 41.1913C147.664 41.1913 145.112 38.7522 145.112 35.0935C145.112 31.5457 147.775 28.9957 151.438 28.9957C153.658 28.9957 155.766 29.8826 155.877 29.8826V27.5543C155.877 27.6652 153.88 27 151.549 27Z" fill="white"/>
<path d="M165.864 27C161.203 27 157.43 30.6587 157.43 35.2043C157.43 39.75 161.203 43.4087 165.864 43.4087C170.526 43.4087 174.299 39.75 174.299 35.2043C174.188 30.6587 170.526 27 165.864 27ZM165.864 41.3022C162.424 41.3022 159.76 38.5304 159.76 35.2043C159.76 31.8783 162.424 29.1065 165.864 29.1065C169.305 29.1065 171.968 31.8783 171.968 35.2043C171.857 38.5304 169.194 41.3022 165.864 41.3022Z" fill="white"/>
<path d="M194.388 27C189.727 27 185.953 30.6587 185.953 35.2043C185.953 39.75 189.727 43.4087 194.388 43.4087C199.049 43.4087 202.822 39.75 202.822 35.2043C202.822 30.6587 199.16 27 194.388 27ZM194.388 41.3022C190.947 41.3022 188.284 38.5304 188.284 35.2043C188.284 31.8783 190.947 29.1065 194.388 29.1065C197.828 29.1065 200.492 31.8783 200.492 35.2043C200.492 38.5304 197.828 41.3022 194.388 41.3022Z" fill="white"/>
<path d="M224.021 27C220.802 27 218.915 28.8848 218.915 31.213C218.915 33.3196 220.136 34.5391 221.801 35.3152C222.245 35.537 223.466 36.0913 224.021 36.4239C224.908 36.8674 226.462 37.6435 226.462 38.9739C226.462 40.0826 225.352 41.1913 223.133 41.1913C220.913 41.1913 219.914 40.3044 219.581 40.0826L218.693 42.1891C218.915 42.3 220.136 43.4087 223.355 43.4087C226.24 43.4087 228.904 42.0783 228.904 38.9739C228.904 36.313 226.462 35.0935 225.019 34.4283C224.464 34.2065 223.799 33.8739 223.244 33.6522C222.134 33.0978 221.246 32.4326 221.246 31.213C221.246 30.1044 222.134 29.1065 224.132 29.1065C225.907 29.1065 227.017 29.7717 227.239 29.8826L227.905 27.9978C227.794 27.887 226.462 27 224.021 27Z" fill="white"/>
<path d="M84.8465 50.5039H76.3008V66.4691H78.6314V59.0409H84.8465V57.0452H78.6314V52.4996H84.8465V50.5039Z" fill="white"/>
<path d="M65.3136 50.2832C60.6523 50.2832 56.8789 53.9419 56.8789 58.4876C56.8789 63.0332 60.6523 66.6919 65.3136 66.6919C69.9749 66.6919 73.7483 63.0332 73.7483 58.4876C73.7483 53.9419 70.0858 50.2832 65.3136 50.2832ZM65.3136 64.5854C61.8731 64.5854 59.2095 61.8136 59.2095 58.4876C59.2095 55.1615 61.8731 52.3897 65.3136 52.3897C68.7541 52.3897 71.4176 55.1615 71.4176 58.4876C71.4176 61.8136 68.7541 64.5854 65.3136 64.5854Z" fill="white"/>
<path d="M131.125 50.5039H129.017V62.8104L119.361 50.5039H117.475V66.4691H119.583V54.1626L129.128 66.4691H131.125V50.5039Z" fill="white"/>
<path d="M201.045 50.5039H198.937V62.8104L189.281 50.5039H187.395V66.4691H189.503V54.1626L199.048 66.4691H201.045V50.5039Z" fill="white"/>
<path d="M155.986 50.5039H144.555V52.4996H149.216V66.4691H151.436V52.4996H155.986V50.5039Z" fill="white"/>
<path d="M168.861 50.5039H157.318V52.4996H161.98V66.4691H164.31V52.4996H168.861V50.5039Z" fill="white"/>
<path d="M114.591 50.5039H105.602V66.4691H114.813V64.4735H107.821V59.2626H114.369V57.2669H107.821V52.4996H114.591V50.5039Z" fill="white"/>
<path d="M143.112 50.5039H134.012V66.4691H143.334V64.4735H136.342V59.2626H142.89V57.2669H136.342V52.4996H143.112V50.5039Z" fill="white"/>
<path d="M176.962 50.2832C172.301 50.2832 168.527 53.9419 168.527 58.4876C168.527 63.0332 172.301 66.6919 176.962 66.6919C181.623 66.6919 185.397 63.0332 185.397 58.4876C185.397 53.9419 181.623 50.2832 176.962 50.2832ZM176.962 64.5854C173.522 64.5854 170.858 61.8136 170.858 58.4876C170.858 55.1615 173.522 52.3897 176.962 52.3897C180.402 52.3897 183.066 55.1615 183.066 58.4876C183.066 61.8136 180.402 64.5854 176.962 64.5854Z" fill="white"/>
<path d="M97.3881 50.5039H92.1719V66.4691H97.61C101.716 66.4691 103.048 64.1409 103.048 62.2561C103.048 58.93 100.385 58.2648 100.052 58.1539C100.274 58.043 102.16 57.3778 102.16 54.6061C102.271 52.3887 100.718 50.5039 97.3881 50.5039ZM94.3915 57.3778V52.4996H96.9441C98.7199 52.4996 99.8297 53.3865 99.8297 54.9387C99.8297 56.6017 98.6089 57.3778 96.9441 57.3778H94.3915ZM94.3915 64.4735V59.3735H97.3881C99.7187 59.3735 100.607 60.4822 100.607 61.9235C100.607 63.143 99.9407 64.4735 97.3881 64.4735H94.3915Z" fill="white"/>
<path d="M204.597 63.3672C203.709 63.3672 203.043 64.0324 203.043 64.9194C203.043 65.8063 203.709 66.4715 204.597 66.4715C205.485 66.4715 206.15 65.8063 206.15 64.9194C206.261 64.0324 205.485 63.3672 204.597 63.3672Z" fill="white"/>
</g>
<defs>
<clipPath id="clip0_2001_136">
<rect width="192" height="94" fill="white" transform="translate(47)"/>
</clipPath>
</defs>
</svg>
