<svg width="285" height="94" viewBox="0 0 285 94" fill="none" xmlns="http://www.w3.org/2000/svg">
<g clip-path="url(#clip0_2001_144)">
<path d="M94.2875 30.6309L91.8602 42.5344C91.428 44.6956 90.9625 47.0231 90.5635 49.2841C90.1645 47.0231 89.699 44.6956 89.2667 42.5344L86.8395 30.6309H76V61.9856H82.7497V53.0746C82.7497 47.8211 82.7165 43.4321 82.5503 38.4114C83.0157 40.7056 83.448 42.7339 84.0465 45.3606L87.704 61.9856H93.4562L97.1137 45.3606C97.7122 42.7006 98.1445 40.7056 98.61 38.4114C98.4437 43.4321 98.4105 47.8544 98.4105 53.0746V61.9856H105.16V30.6309H94.2875Z" fill="white"/>
<path d="M120.755 63.25C128.502 63.25 133.855 56.7663 133.855 46.625C133.855 36.4838 128.502 30 120.755 30C112.974 30 107.654 36.4838 107.654 46.625C107.654 56.7663 112.974 63.25 120.755 63.25ZM120.755 55.5028C117.264 55.5028 114.936 52.2775 114.936 46.625C114.936 41.0058 117.264 37.7473 120.755 37.7473C124.246 37.7473 126.574 41.0058 126.574 46.625C126.574 52.3108 124.246 55.5028 120.755 55.5028Z" fill="white"/>
<path d="M143.93 54.1387V30.5977H136.814V61.9524H155.102V54.1054H143.93V54.1387Z" fill="white"/>
<path d="M164.014 54.1387V30.5977H157.098V61.9524H174.886V54.1054H164.014V54.1387Z" fill="white"/>
<path d="M177.346 61.9856H184.262V30.6309H177.346V61.9856Z" fill="white"/>
<path d="M197.961 63.2499C204.512 63.2499 209 60.0247 209 52.9424C209 47.2567 206.174 44.3307 200.056 43.0339L197.995 42.6017C195.501 42.0697 194.337 41.4047 194.337 39.4762C194.337 37.8137 195.335 36.8494 197.529 36.8494C200.289 36.8494 201.386 38.0464 201.519 40.5734H208.136C207.87 33.5909 204.046 30.0664 197.429 30.0664C190.38 30.0664 187.155 34.3889 187.155 39.9084C187.155 45.6607 190.181 49.0189 195.867 50.1827L197.828 50.5817C200.887 51.2134 201.785 51.8452 201.785 53.6739C201.785 55.4694 200.655 56.5334 198.261 56.5334C195.534 56.5334 193.606 55.9017 193.539 52.1444H186.789C186.756 58.5949 190.38 63.2499 197.961 63.2499Z" fill="white"/>
</g>
<defs>
<clipPath id="clip0_2001_144">
<rect width="133" height="94" fill="white" transform="translate(76)"/>
</clipPath>
</defs>
</svg>
