<svg width="285" height="94" viewBox="0 0 285 94" fill="none" xmlns="http://www.w3.org/2000/svg">
<g clip-path="url(#clip0_2001_177)">
<path d="M276.329 44.1713C276.329 40.4911 273.649 37.7477 269.897 37.7477H256.028V56.4162H260.316V50.461H267.954L272.242 56.4162H277.066L272.644 50.0595L272.845 49.9926C275.056 49.2566 276.329 47.1154 276.329 44.1713ZM272.108 44.1044C272.108 45.7102 271.036 46.8477 269.428 46.8477H260.249V41.5617H269.428C271.17 41.4948 272.108 42.833 272.108 44.1044ZM251.338 47.1154C251.338 41.1602 246.782 37.2793 239.814 37.2793C234.521 37.2793 228.29 39.822 228.29 47.1154C228.29 50.9963 230.367 53.2713 232.042 54.5427C234.119 56.0816 236.933 56.9515 239.814 56.9515C242.896 56.9515 245.71 56.0816 247.787 54.4088C250.132 52.6022 251.338 50.0595 251.338 47.1154ZM246.849 47.1154C246.849 50.9963 244.236 53.2044 239.881 53.2044C236.665 53.2044 232.846 51.6654 232.846 47.1154C232.846 42.8999 236.397 41.0264 239.881 41.0264C244.236 41.0264 246.849 43.3014 246.849 47.1154ZM208.659 56.4162H225.945V52.6022H212.746V37.7477H208.659V56.4162ZM197.537 56.4162H201.959V37.7477H197.537V56.4162ZM188.291 56.4162H192.78L183.199 37.7477H180.72H178.241L168.727 56.4162H173.149L175.36 52.0669H186.08L188.291 56.4162ZM184.271 48.3867H177.236L180.72 41.4279L184.271 48.3867ZM169.33 37.8146H146.617V41.8962H155.93V56.4831H160.017V41.8962H169.33V37.8146ZM133.686 56.4162H137.706V37.7477H132.815L125.981 46.0448L119.214 37.7477H114.323V56.4162H118.343V43.5021V43.0338L118.611 43.3683L125.981 52.3345L133.418 43.3683L133.686 43.0338V43.5021V56.4162ZM109.566 47.1154C109.566 41.1602 105.01 37.2793 98.0424 37.2793C92.7494 37.2793 86.5184 39.822 86.5184 47.1154C86.5184 50.9963 88.5954 53.2713 90.2704 54.5427C92.3474 56.0816 95.1614 56.9515 98.0424 56.9515C101.124 56.9515 103.938 56.0816 106.015 54.4088C108.36 52.6022 109.566 50.0595 109.566 47.1154ZM105.077 47.1154C105.077 50.9963 102.464 53.2044 98.1094 53.2044C94.8934 53.2044 91.0744 51.6654 91.0744 47.1154C91.0744 42.8999 94.6254 41.0264 98.1094 41.0264C102.464 41.0264 105.077 43.3014 105.077 47.1154ZM74.3244 41.8293H83.6374V37.7477H60.8574V41.8293H70.1704V56.4162H74.2574V41.8293H74.3244Z" fill="white"/>
<path fill-rule="evenodd" clip-rule="evenodd" d="M46.587 37.7471C42.634 35.4721 37.14 34 31.177 34C25.147 34 19.72 35.4052 15.767 37.7471C11.546 40.1559 9 43.5684 9 47.3824C9 51.1964 11.546 54.609 15.767 57.0178C19.72 59.2928 25.214 60.7649 31.177 60.7649C37.207 60.7649 42.634 59.3597 46.587 57.0178C50.741 54.609 53.354 51.1964 53.354 47.3824C53.354 43.5684 50.741 40.1559 46.587 37.7471ZM51.143 47.3824C51.143 50.3266 48.999 53.0031 45.515 55.0104C41.83 57.1516 36.738 58.423 31.11 58.423C25.482 58.423 20.39 57.0847 16.705 55.0104C13.221 53.0031 11.077 50.3266 11.077 47.3824C11.077 44.4383 13.221 41.7618 16.705 39.7545C20.39 37.6133 25.482 36.3419 31.11 36.3419C36.738 36.3419 41.83 37.6802 45.515 39.7545C48.999 41.7618 51.143 44.4383 51.143 47.3824Z" fill="white"/>
<path fill-rule="evenodd" clip-rule="evenodd" d="M26.5542 54.5422V45.8436C23.6732 46.312 20.6582 47.2488 20.6582 47.2488V42.1635C24.6112 41.0929 28.2292 40.6914 31.1772 40.6914C33.8572 40.6914 38.0112 41.0929 41.9642 42.1635V47.2488C41.9642 47.2488 38.8822 46.312 36.0682 45.8436V54.5422H26.5542Z" fill="white"/>
</g>
<defs>
<clipPath id="clip0_2001_177">
<rect width="268" height="94" fill="white" transform="translate(9)"/>
</clipPath>
</defs>
</svg>
