<svg width="285" height="94" viewBox="0 0 285 94" fill="none" xmlns="http://www.w3.org/2000/svg">
<g clip-path="url(#clip0_2001_186)">
<path d="M181.063 47.8565C182.334 50.2402 183.549 52.2359 184.82 53.8989C186.091 52.513 186.754 51.2935 186.864 50.5728C186.864 50.1293 186.754 49.7967 186.422 49.575C186.091 49.3533 185.594 49.1315 184.599 49.1315C184.654 48.7989 184.654 48.4109 184.71 48.0783C187.03 48.0783 189.351 48.0783 191.671 48.0783C191.616 48.4109 191.616 48.7989 191.561 49.1315C190.732 49.1315 190.069 49.2424 189.627 49.575C189.185 49.9076 188.577 50.6283 187.693 51.8478C186.92 52.9011 186.312 53.8989 185.538 54.7304C186.201 55.3957 186.588 55.7837 187.03 56.0054C187.472 56.2272 187.804 56.338 188.08 56.338C188.632 56.338 189.074 56.1163 189.351 55.7837C189.793 55.3402 190.014 54.7859 190.124 53.9543C190.456 53.9543 190.842 53.9543 191.174 53.9543C191.063 55.4511 190.621 56.6707 189.903 57.3913C189.074 58.2783 187.969 58.6663 186.699 58.6663C186.036 58.6663 185.428 58.5554 184.875 58.3337C184.323 58.112 183.605 57.6685 182.721 57.0587C181.671 57.7239 180.676 58.112 179.848 58.3337C179.019 58.5554 178.245 58.6663 177.251 58.6663C175.538 58.6663 174.267 58.2228 173.273 57.2804C172.278 56.2826 171.892 55.2294 172.113 53.8435C172.334 51.4598 174.046 49.6304 177.361 48.3554C176.919 47.3022 176.588 46.4152 176.477 45.75C176.367 45.1957 176.367 44.5859 176.367 44.1424C176.477 43.0891 177.03 42.0913 177.969 41.3707C178.908 40.65 180.234 40.2065 181.616 40.2065C183.107 40.2065 184.157 40.5391 184.931 41.1489C185.704 41.8141 185.98 42.5348 185.87 43.5326C185.759 44.3087 185.428 45.0294 184.71 45.8054C183.936 46.5815 182.665 47.3022 180.842 48.0783C181.008 48.0228 181.008 47.9674 181.063 47.8565ZM32.4406 33.887C36.1424 33.887 39.8441 33.887 43.6011 33.887C43.4354 34.4413 43.2696 34.9402 43.0486 35.4946C42.7171 35.4946 42.3856 35.4946 42.0541 35.4946C41.2806 35.4946 40.8939 35.6054 40.5624 35.8272C40.2309 36.0489 40.0099 36.3815 40.0099 36.8804C40.0099 37.1022 40.0099 37.3239 40.0099 37.6565C40.2309 42.9783 40.5071 48.2446 40.7834 53.5663C44.2089 48.7989 47.6344 44.0315 51.0599 39.2641C51.5019 38.5989 51.8334 37.9891 51.8334 37.3239C51.8334 36.7696 51.7229 36.3261 51.3914 36.0489C50.9494 35.7163 50.3416 35.6054 49.2366 35.4946C49.4576 34.9402 49.6786 34.4413 49.8996 33.887C52.8831 33.887 55.8114 33.887 58.7949 33.887C58.6291 34.4413 58.4081 34.9402 58.2424 35.4946C57.4136 35.6054 56.6401 35.8272 55.9771 36.2706C55.3141 36.7141 54.7064 37.3239 54.0434 38.1C48.7394 45.4728 43.4906 52.8457 38.1866 60.2185C37.4131 60.2185 36.5844 60.2185 35.8109 60.2185C35.4794 52.5685 35.0926 44.9739 34.7611 37.3239C34.6506 36.1598 34.0981 35.6054 32.9379 35.6054C32.6064 35.6054 32.2749 35.6054 31.9434 35.6054C32.1644 35.0511 32.3854 34.5522 32.6064 33.9978C32.5511 33.9424 32.4959 33.9424 32.4406 33.887ZM74.6516 33.887C75.4251 33.887 76.1986 33.887 77.0274 33.887C77.4141 41.2598 77.7456 48.6326 78.0771 56.0609C78.0771 56.7261 78.2981 57.225 78.6296 57.4467C79.0716 57.7794 79.6794 58.0011 80.5634 58.0011C80.8396 58.0011 81.0606 58.0011 81.3369 58.0011C81.1711 58.5554 81.0054 59.0543 80.7844 59.6087C76.8616 59.6087 72.9389 59.6087 69.0161 59.6087C69.1819 59.0543 69.3476 58.5554 69.5686 58.0011C69.8449 58.0011 70.1211 58.0011 70.4526 58.0011C71.3919 58.0011 71.9444 57.8902 72.3864 57.6685C72.7179 57.4467 72.9389 57.1141 73.0494 56.6152C73.0494 56.5044 73.0494 56.2826 73.0494 56.0609C72.9941 54.5087 72.8836 52.9565 72.8284 51.4598C69.9554 51.4598 67.0271 51.4598 64.1541 51.4598C63.4911 52.3467 62.8834 53.2337 62.2204 54.1761C61.6679 54.9522 61.3916 55.562 61.3916 56.2272C61.3916 56.7815 61.5021 57.225 61.8336 57.5022C62.1651 57.8348 62.6624 57.9457 63.5464 57.9457C63.8226 57.9457 64.0436 57.9457 64.3199 57.9457C64.1541 58.5 63.9331 58.9989 63.7674 59.5533C60.6734 59.5533 57.6346 59.5533 54.5406 59.5533C54.7064 58.9989 54.8721 58.5 55.0931 57.9457C55.8666 57.9457 56.5849 57.7239 57.0269 57.3913C57.9661 56.7261 58.7396 56.1163 59.1816 55.4511C64.4856 48.2446 69.7344 41.038 75.0384 33.8315C74.8174 33.8315 74.7069 33.887 74.6516 33.887ZM72.0549 40.3728C69.7896 43.4772 67.5796 46.5261 65.3144 49.6304C67.6901 49.6304 70.1211 49.6304 72.4969 49.6304C72.3864 46.5261 72.2206 43.4217 72.0549 40.3728ZM107.525 36.0489C108.244 35.4946 108.962 34.9957 109.68 34.4413C110.177 34.4413 110.675 34.4413 111.172 34.4413C110.233 37.4348 109.293 40.3728 108.354 43.3663C107.857 43.3663 107.36 43.3663 106.862 43.3663C106.973 41.3152 106.862 39.5967 106.42 38.5435C105.978 37.3793 105.371 36.4924 104.487 35.8272C103.603 35.162 102.553 34.8848 101.393 34.8848C99.9009 34.8848 98.5749 35.3283 97.5251 36.1598C96.4754 37.0467 95.9229 38.1 95.8124 39.2641C95.7019 40.262 95.9229 40.9826 96.4754 41.537C97.0279 42.0913 98.7406 42.9228 101.614 44.0315C103.547 44.8076 104.818 45.4174 105.592 46.0826C106.365 46.7478 106.862 47.4685 107.194 48.3554C107.525 49.2424 107.636 50.2957 107.525 51.3489C107.415 52.9565 106.862 54.4533 105.923 55.7837C104.984 57.0587 103.768 58.1674 102.166 58.888C100.564 59.6641 98.7406 60.0522 96.6964 60.0522C95.0941 60.0522 93.7129 59.8304 92.6079 59.387C91.4476 58.9435 90.3426 58.2228 89.1824 57.225C88.6299 57.7793 88.1326 58.2783 87.5801 58.8326C87.0276 58.8326 86.5304 58.8326 85.9779 58.8326C86.9171 55.7283 87.8564 52.6793 88.7404 49.575C89.2376 49.575 89.7349 49.575 90.2321 49.575C90.0111 51.737 90.2321 53.3446 90.6741 54.6196C91.1161 55.7837 91.8344 56.7815 92.9394 57.3913C93.9891 58.0565 95.2046 58.3891 96.6964 58.3891C98.4091 58.3891 99.9009 57.9457 101.061 57.0033C102.221 56.0609 102.884 54.9522 102.995 53.5663C103.105 52.513 102.774 51.6261 102 50.85C101.558 50.5174 100.067 49.7967 97.4146 48.5772C95.3704 47.6902 93.9891 47.0804 93.3261 46.5261C92.6631 45.9717 92.1659 45.2511 91.8344 44.475C91.5029 43.588 91.3924 42.6457 91.5029 41.4815C91.7239 39.0978 92.6631 37.1022 94.4864 35.4391C96.1991 33.8315 98.4644 33.0554 101.006 33.0554C102.277 33.0554 103.492 33.2772 104.542 33.7207C105.592 34.1641 106.586 34.7739 107.525 35.7717C107.636 35.8826 107.581 35.9935 107.525 36.0489ZM134.764 36.0489C135.482 35.4946 136.2 34.9957 136.918 34.4413C137.416 34.4413 137.913 34.4413 138.41 34.4413C137.471 37.4348 136.532 40.3728 135.648 43.3663C135.15 43.3663 134.653 43.3663 134.156 43.3663C134.266 41.3152 134.156 39.5967 133.714 38.5435C133.272 37.3793 132.664 36.4924 131.78 35.8272C130.896 35.162 129.846 34.8848 128.686 34.8848C127.194 34.8848 125.924 35.3283 124.819 36.1598C123.769 37.0467 123.216 38.1 123.106 39.2641C122.995 40.262 123.216 40.9826 123.769 41.537C124.321 42.0913 126.034 42.9228 128.907 44.0315C130.841 44.8076 132.112 45.4174 132.885 46.0826C133.659 46.7478 134.156 47.4685 134.487 48.3554C134.819 49.2424 134.929 50.2957 134.819 51.3489C134.708 52.9565 134.156 54.4533 133.217 55.7837C132.222 57.0587 131.062 58.1674 129.46 58.888C127.857 59.6641 126.034 60.0522 123.99 60.0522C122.388 60.0522 121.006 59.8304 119.901 59.387C118.741 58.9435 117.636 58.2228 116.476 57.225C115.923 57.7793 115.426 58.2783 114.874 58.8326C114.321 58.8326 113.824 58.8326 113.271 58.8326C114.211 55.7283 115.15 52.6793 116.089 49.575C116.586 49.575 117.084 49.575 117.581 49.575C117.36 51.737 117.581 53.3446 118.023 54.6196C118.465 55.7837 119.183 56.7815 120.288 57.3913C121.338 58.0565 122.553 58.3891 124.045 58.3891C125.758 58.3891 127.25 57.9457 128.41 57.0033C129.57 56.0609 130.233 54.9522 130.344 53.5663C130.454 52.513 130.123 51.6261 129.404 50.85C128.962 50.5174 127.471 49.7967 124.819 48.5772C122.774 47.6902 121.393 47.0804 120.73 46.5261C120.067 45.9717 119.57 45.2511 119.238 44.475C118.907 43.588 118.796 42.6457 118.907 41.4815C119.128 39.0978 120.067 37.1022 121.89 35.4391C123.603 33.8315 125.868 33.0554 128.41 33.0554C129.681 33.0554 130.896 33.2772 131.946 33.7207C132.996 34.1641 133.99 34.7739 134.929 35.7717C134.819 35.8826 134.819 35.9935 134.764 36.0489ZM158.245 33.9978C159.018 33.9978 159.792 33.9978 160.621 33.9978C160.952 41.3707 161.339 48.7435 161.67 56.1163C161.67 56.7815 161.891 57.2804 162.223 57.5022C162.665 57.8348 163.273 58.0565 164.157 58.0565C164.433 58.0565 164.654 58.0565 164.93 58.0565C164.764 58.6109 164.599 59.1098 164.378 59.6641C160.455 59.6641 156.532 59.6641 152.609 59.6641C152.775 59.1098 152.941 58.6109 153.162 58.0565C153.438 58.0565 153.714 58.0565 154.046 58.0565C154.985 58.0565 155.538 57.9457 155.98 57.7239C156.311 57.5022 156.532 57.1696 156.643 56.6707C156.643 56.5598 156.643 56.338 156.643 56.1163C156.587 54.5641 156.477 53.012 156.422 51.5152C153.549 51.5152 150.62 51.5152 147.747 51.5152C147.084 52.4022 146.477 53.2891 145.814 54.2315C145.261 55.0076 144.93 55.6174 144.93 56.2826C144.93 56.837 145.04 57.225 145.372 57.5576C145.703 57.8902 146.256 58.0011 147.084 58.0011C147.305 58.0011 147.582 58.0011 147.858 58.0011C147.692 58.5554 147.526 59.0543 147.305 59.6087C144.211 59.6087 141.173 59.6087 138.079 59.6087C138.244 59.0543 138.41 58.5554 138.631 58.0011C139.405 58.0011 140.123 57.7794 140.565 57.4467C141.559 56.7815 142.278 56.1717 142.72 55.5065C148.024 48.3 153.272 41.0935 158.576 33.887C158.411 33.9424 158.3 33.9424 158.245 33.9978ZM155.648 40.4283C153.383 43.5326 151.173 46.5815 148.908 49.6859C151.283 49.6859 153.714 49.6859 156.09 49.6859C155.924 46.637 155.814 43.5326 155.648 40.4283ZM221.009 35.7163C221.782 35.2728 222.28 34.663 222.722 33.7761C223.274 33.7761 223.771 33.7761 224.324 33.7761C223.385 36.8804 222.39 40.0402 221.451 43.1446C220.954 43.1446 220.456 43.1446 219.959 43.1446C220.18 40.65 220.07 38.9315 219.738 37.8783C219.407 36.825 218.799 35.938 217.915 35.3837C217.031 34.7185 215.871 34.4967 214.6 34.4967C213.219 34.4967 211.727 35.0511 210.18 36.1044C208.633 37.1576 207.307 38.987 205.981 41.5924C204.71 44.1424 203.937 46.8587 203.605 49.575C203.495 51.1826 203.605 52.4576 204.047 53.5663C204.489 54.5087 205.207 55.3956 206.202 55.95C207.196 56.5043 208.357 56.837 209.627 56.837C211.23 56.837 212.832 56.2826 214.324 55.2294C215.815 54.1761 217.197 52.513 218.302 50.5174C218.744 50.7391 219.241 50.9609 219.683 51.1826C218.523 53.7326 216.81 55.6728 214.766 57.0033C212.721 58.2783 210.346 58.9435 207.694 58.9435C204.379 58.9435 201.892 58.0565 200.18 56.2272C198.467 54.3978 197.693 52.0141 198.025 49.0206C198.356 46.138 199.185 43.3109 200.787 40.7609C202.39 38.2109 204.323 36.2707 206.589 34.9402C208.854 33.6098 211.285 33 213.882 33C215.484 33 216.755 33.2217 217.97 33.6652C219.02 34.1087 220.125 34.8293 221.064 35.938C221.119 35.7717 221.064 35.7717 221.009 35.7163ZM236.921 41.6478C239.186 41.6478 240.899 42.313 242.17 43.6989C243.44 44.9739 243.993 46.6924 243.772 48.7435C243.551 51.2935 242.391 53.6772 240.236 55.7283C238.081 57.7793 235.54 58.8326 232.39 58.8326C230.125 58.8326 228.302 58.1674 227.031 56.7815C225.76 55.5065 225.208 53.788 225.429 51.737C225.65 49.9076 226.202 48.3 227.363 46.6924C228.412 45.0848 229.849 43.9207 231.451 43.0337C233.053 42.1467 234.877 41.7587 236.81 41.7587C236.81 41.7033 236.866 41.6478 236.921 41.6478ZM236.921 43.0337C236.037 43.0337 235.208 43.3663 234.324 44.087C233.274 45.1402 232.28 46.637 231.451 48.7989C230.622 50.9609 230.18 52.6793 230.07 53.9543C229.959 55.0076 230.18 55.7837 230.622 56.338C231.064 56.8924 231.672 57.225 232.556 57.225C233.33 57.225 234.048 56.8924 234.711 56.4489C235.705 55.562 236.645 54.1761 237.584 52.125C238.578 50.0739 239.186 48.0228 239.297 46.3043C239.407 45.362 239.186 44.475 238.744 43.9207C238.302 43.3663 237.694 43.0337 236.921 43.0337C236.921 43.0891 236.921 43.0891 236.921 43.0337ZM250.733 53.788C251.396 53.788 252.004 54.0098 252.446 54.5641C252.888 55.0076 253.109 55.6174 252.999 56.2826C252.888 56.9478 252.667 57.5576 252.17 58.0011C251.673 58.4446 251.01 58.7772 250.347 58.7772C249.684 58.7772 249.076 58.5554 248.634 58.0011C248.192 57.5576 247.971 56.9478 248.081 56.2826C248.192 55.6174 248.413 55.0076 248.91 54.5641C249.407 54.1206 250.07 53.788 250.733 53.788ZM180.621 46.9141C181.616 46.4707 182.334 46.0272 182.665 45.5283C183.107 44.9739 183.328 44.3641 183.439 43.588C183.549 42.812 183.439 42.2022 183.107 41.7587C182.776 41.3152 182.334 41.0935 181.726 41.0935C181.174 41.0935 180.621 41.3152 180.345 41.6478C179.903 42.0913 179.682 42.5348 179.682 43.1446C179.571 44.1424 179.903 45.3065 180.621 46.8033C180.621 46.8587 180.621 46.8587 180.621 46.9141ZM177.969 49.3533C177.196 49.9076 176.809 50.3511 176.477 50.7391C176.146 51.1826 176.035 51.737 175.925 52.2359C175.814 53.2891 176.146 54.287 176.754 55.2294C177.417 56.2272 178.356 56.7261 179.516 56.7261C180.29 56.7261 181.118 56.5043 182.058 55.95C180.897 54.3424 180.124 53.1228 179.792 52.6239C179.461 52.0696 178.798 50.9054 177.969 49.2978C178.024 49.3533 177.969 49.3533 177.969 49.3533Z" fill="white"/>
</g>
<defs>
<clipPath id="clip0_2001_186">
<rect width="221" height="94" fill="white" transform="translate(32)"/>
</clipPath>
</defs>
</svg>
