<svg width="285" height="94" viewBox="0 0 285 94" fill="none" xmlns="http://www.w3.org/2000/svg">
<path d="M44.516 32.0762H39.702L32.278 47.5042V32.0762H27V50.2302H30.944H32.278H36.918L44.516 34.3962V50.2302H49.794V32.0762H45.676H44.516Z" fill="white"/>
<path d="M228.377 32.0762H223.505L216.081 47.5042V32.0762H210.803V50.2302H214.805H216.081H220.779L228.377 34.3962V50.2302H233.597V32.0762H229.479H228.377Z" fill="white"/>
<path d="M71.9496 41.1242H59.6536V32.0762H54.4336V50.2302H59.6536V45.2422H71.9496V50.2302H77.2276V32.0762H71.9496V41.1242Z" fill="white"/>
<path d="M100.022 32.0176H89.7564L83.4924 45.1256H79.3164V50.2296H108.664L111.1 45.1836H106.344L100.022 32.0176ZM93.2944 37.1216H96.4844L100.312 45.1256H89.4084L93.2944 37.1216Z" fill="white"/>
<path d="M141.898 32.0762H137.258H135.924L127.166 50.2302H132.154H149.96V50.1722L147.524 45.1262H135.576L139.404 37.1222H149.96L147.524 32.0762H141.898Z" fill="white"/>
<path d="M169.796 32.0762H164.518H159.82H154.6V37.1222V50.2302H159.82V37.1222H164.518V50.2302H169.796V37.1222H174.436V50.2302H179.714V37.1222L177.278 32.0762H169.796Z" fill="white"/>
<path d="M176.408 30.046L173.972 25H154.658V30.104H176.408V30.046Z" fill="white"/>
<path d="M201.927 32.0762H190.385H185.107V37.1222V50.2302H190.385V37.1222H199.491L197.519 41.1242H193.749L191.313 46.2282H200.535H201.057L207.901 32.0762H202.739H201.927Z" fill="white"/>
<path d="M124.44 32.0762L120.09 41.1242H118.002L113.652 32.0762H107.678L114 45.2422H114.406H118.118L115.74 50.2302H121.714L130.414 32.0762H124.44Z" fill="white"/>
<path d="M253.721 32.0762H242.179H241.367H236.205L243.049 46.2282L241.135 50.2302H247.109L249.023 46.2282H252.793L250.357 41.1242H246.587L244.615 37.1222H253.721V50.2302H258.999V37.1222V32.0762H253.721Z" fill="white"/>
<path d="M54.7812 65.6577V58.9297H55.9412V64.3817H57.9712V58.9297H59.1312V64.3817H61.1612V58.9297H62.3212V65.6577H54.7812Z" fill="white"/>
<path d="M64.5257 64.8459C63.4237 63.4539 63.4237 61.1919 64.5257 59.7999C65.7437 58.4079 67.5417 58.4079 68.7597 59.7999C69.2817 60.4379 69.6297 61.3659 69.5717 62.2939C69.5717 63.2219 69.2817 64.1499 68.7597 64.8459C67.5997 66.1799 65.7437 66.1799 64.5257 64.8459ZM67.9477 63.9179C68.6437 62.9899 68.6437 61.5979 67.9477 60.7279C67.5997 60.3219 67.1357 60.0899 66.6717 60.0899C65.6857 60.0899 64.8737 61.1339 64.8737 62.4099C64.8737 62.9899 65.0477 63.5119 65.3957 63.9179C66.0917 64.7879 67.1937 64.7879 67.9477 63.9179Z" fill="white"/>
<path d="M70.3843 68.2677V66.9917C70.6163 67.1657 70.9063 67.2237 71.1383 67.2237C71.7763 67.2237 72.1243 66.7017 72.5303 65.4837L70.1523 58.9297H71.4863L73.1103 63.6857L74.6763 58.9297H75.9523L73.4003 66.4117C72.9363 67.8037 72.2403 68.4997 71.3703 68.4997C71.0223 68.4997 70.6743 68.4417 70.3843 68.2677Z" fill="white"/>
<path d="M82.0999 59.7999C83.0859 61.2499 83.0859 63.3959 82.0999 64.8459C81.6359 65.5419 80.9399 65.8899 80.2439 65.8899C79.4319 65.8899 78.7939 65.5419 78.3299 64.7879V68.4419H77.1699V58.9299H78.3299V59.8579C78.7939 59.1039 79.4319 58.7559 80.2439 58.7559C80.9399 58.7559 81.5779 59.1039 82.0999 59.7999ZM78.2719 61.3079V63.3959C78.6199 64.1499 79.1999 64.5559 79.8959 64.6139C80.3599 64.6139 80.8239 64.3819 81.1139 63.9759C81.4619 63.5699 81.6359 62.9899 81.5779 62.4099C81.5779 61.8299 81.4039 61.2499 81.1139 60.8439C80.8239 60.4379 80.3599 60.1479 79.8959 60.2059C79.1999 60.0899 78.6199 60.5539 78.2719 61.3079Z" fill="white"/>
<path d="M83.551 68.2677V66.9917C83.783 67.1657 84.073 67.2237 84.305 67.2237C84.943 67.2237 85.291 66.7017 85.697 65.4837L83.377 58.9297H84.711L86.335 63.6857L87.901 58.9297H89.177L86.625 66.4117C86.161 67.8037 85.465 68.4997 84.595 68.4997C84.189 68.4997 83.899 68.4417 83.551 68.2677Z" fill="white"/>
<path d="M90.2773 65.6577V58.9297H91.4373L93.2933 61.7137L95.1493 58.9297H96.3093V65.6577H95.1493V60.9597L93.5253 63.4537H93.0613L91.4373 60.9597V65.6577H90.2773Z" fill="white"/>
<path d="M104.313 64.8459C103.733 64.2079 103.443 63.2219 103.443 62.2939C103.443 61.3079 103.733 60.4379 104.313 59.7419C104.893 59.1039 105.589 58.7559 106.401 58.7559C106.981 58.7559 107.503 58.8719 108.025 59.2199V60.4959C107.561 60.2059 107.097 60.0899 106.575 60.0319C106.053 60.0319 105.589 60.2639 105.241 60.6699C104.893 61.0759 104.661 61.6559 104.719 62.2939C104.719 62.9319 104.893 63.5119 105.241 63.9179C105.589 64.3239 106.111 64.5559 106.575 64.5559C107.097 64.5559 107.619 64.3819 108.083 64.0339V65.3099C107.561 65.6579 106.981 65.8899 106.343 65.8319C105.647 65.8899 104.893 65.5419 104.313 64.8459Z" fill="white"/>
<path d="M109.592 65.6577V58.9297H110.752V63.5117L113.652 58.9297H114.754V65.6577H113.594V61.0757L110.694 65.6577H109.592Z" fill="white"/>
<path d="M117.016 64.6715C116.494 63.8595 116.262 62.8155 116.262 61.4235C116.262 59.8575 116.552 58.6975 117.074 57.9435C117.364 57.5375 117.712 57.1895 118.118 56.9575C118.582 56.6675 119.046 56.4935 119.51 56.3195C119.974 56.1455 120.612 56.0295 121.308 55.8555V57.2475C120.554 57.4215 119.8 57.5955 119.104 57.8855C118.292 58.2335 117.77 58.7555 117.48 59.5095C117.364 59.8575 117.306 60.2635 117.306 60.6695C117.828 59.7995 118.64 59.2775 119.51 59.3355C120.148 59.3355 120.786 59.6255 121.25 60.2055C121.714 60.7855 121.946 61.5975 121.946 62.4095C122.004 63.3375 121.714 64.2655 121.134 64.9035C120.612 65.5415 119.916 65.8895 119.162 65.8895C118.234 65.8895 117.538 65.4835 117.016 64.6715ZM120.322 63.9755C120.612 63.5695 120.786 63.0475 120.786 62.4675C120.844 61.4815 120.206 60.6115 119.394 60.5535C119.336 60.5535 119.278 60.5535 119.278 60.5535C118.524 60.6115 117.828 61.0755 117.48 61.8875C117.538 63.5115 118.176 64.4975 119.278 64.4975C119.626 64.5555 120.032 64.3815 120.322 63.9755Z" fill="white"/>
<path d="M123.279 65.6577V58.9297H124.439V63.5117L127.339 58.9297H128.441V65.6577H127.281V61.0757L124.381 65.6577H123.279Z" fill="white"/>
<path d="M135.229 59.7999C136.215 61.2499 136.215 63.3959 135.229 64.8459C134.765 65.5419 134.069 65.8899 133.373 65.8899C132.561 65.8899 131.923 65.5419 131.459 64.7879V68.4419H130.299V58.9299H131.459V59.8579C131.923 59.1039 132.561 58.7559 133.373 58.7559C134.069 58.7559 134.765 59.1039 135.229 59.7999ZM131.401 61.3079V63.3959C131.749 64.1499 132.329 64.5559 133.025 64.6139C133.489 64.6139 133.953 64.3819 134.243 63.9759C134.591 63.5699 134.765 62.9899 134.707 62.4099C134.707 61.8299 134.533 61.2499 134.243 60.8439C133.953 60.4379 133.489 60.1479 133.025 60.2059C132.329 60.0899 131.749 60.5539 131.401 61.3079Z" fill="white"/>
<path d="M137.78 64.8459C137.2 64.1499 136.91 63.2219 136.91 62.2939C136.91 61.3079 137.2 60.4379 137.78 59.7419C138.36 59.1039 139.056 58.7559 139.868 58.7559C140.448 58.7559 140.97 58.8719 141.492 59.2199V60.4959C141.028 60.2059 140.564 60.0899 140.042 60.0319C139.52 60.0319 139.056 60.2639 138.708 60.6699C138.36 61.0759 138.128 61.6559 138.186 62.2939C138.186 62.9319 138.36 63.5119 138.708 63.9179C139.056 64.3239 139.578 64.5559 140.042 64.5559C140.564 64.5559 141.086 64.3819 141.55 64.0339V65.3099C141.028 65.6579 140.448 65.8899 139.81 65.8319C139.056 65.8899 138.302 65.5419 137.78 64.8459Z" fill="white"/>
<path d="M143.059 65.6577V58.9297H144.219V61.4817L146.365 58.9297H147.873L145.321 61.9457L148.279 65.6577H146.655L144.277 62.5837V65.6577H143.059Z" fill="white"/>
<path d="M149.381 65.6577V58.9297H150.541V63.5117L153.441 58.9297H154.543V65.6577H153.383V61.0757L150.483 65.6577H149.381Z" fill="white"/>
<path d="M157.327 58.9297L158.603 61.0177L159.879 58.9297H161.213L159.241 62.1197L161.387 65.6577H159.995L158.487 63.2217L156.979 65.6577H155.645L157.791 62.1197L155.877 58.9297H157.327Z" fill="white"/>
<path d="M167.883 67.5143V64.3823H168.579C168.869 63.8023 169.101 63.1063 169.159 62.4103C169.275 61.2503 169.391 60.0903 169.333 58.9883H173.625V64.4403H174.553V67.5723H173.451V65.7163H168.985V67.5723H167.883V67.5143ZM172.465 64.3823V60.2643H170.435C170.435 62.0043 170.203 63.3963 169.797 64.3823H172.465Z" fill="white"/>
<path d="M175.828 65.6577V58.9297H176.988V63.5117L179.888 58.9297H180.99V65.6577H179.83V61.0757L176.93 65.6577H175.828Z" fill="white"/>
<path d="M182.498 65.3686V64.0346C183.078 64.3826 183.716 64.5566 184.354 64.5566C185.282 64.5566 185.862 64.2086 185.862 63.5706C185.862 62.9906 185.456 62.7006 184.702 62.7006H183.716V61.4826H184.702C185.398 61.4826 185.688 61.2506 185.688 60.7286C185.688 60.2066 185.224 59.9746 184.412 59.9746C183.832 59.9746 183.194 60.1486 182.672 60.4386V59.1046C183.31 58.7566 184.006 58.6406 184.702 58.6406C185.282 58.6406 185.862 58.8146 186.326 59.1626C186.732 59.5106 186.964 59.9166 186.964 60.4966C187.022 61.1926 186.674 61.7726 186.152 62.0046C186.848 62.2946 187.196 62.8166 187.196 63.6866C187.196 64.3246 186.906 64.9046 186.5 65.2526C186.036 65.6586 185.398 65.8326 184.644 65.8326C183.832 65.8906 183.136 65.7166 182.498 65.3686Z" fill="white"/>
<path d="M193.923 64.4405V65.5424C193.691 65.7164 193.459 65.7745 193.227 65.7745C192.647 65.7745 192.241 65.4845 192.125 64.7885C191.603 65.4845 190.907 65.8904 190.153 65.8324C189.631 65.8324 189.109 65.6584 188.703 65.2524C188.297 64.8464 188.123 64.2085 188.123 63.5705C188.123 62.9325 188.355 62.2944 188.761 61.9464C189.225 61.5404 189.747 61.3084 190.269 61.3664C190.849 61.3664 191.487 61.5405 192.009 61.8885V61.5405C192.009 60.5545 191.487 60.0905 190.443 60.0905C189.863 60.0905 189.225 60.3225 188.761 60.6705V59.3945C189.341 58.9885 190.037 58.8145 190.733 58.8145C192.241 58.8145 193.227 59.7424 193.227 61.3664V63.8605C193.227 64.2665 193.401 64.5564 193.691 64.5564C193.749 64.5564 193.865 64.4985 193.923 64.4405ZM192.009 62.9324C191.545 62.6424 191.081 62.4685 190.559 62.4685C189.747 62.4685 189.283 62.8744 189.283 63.5124C189.283 64.2084 189.747 64.5564 190.443 64.5564C191.023 64.5564 191.545 64.2665 191.951 63.7445V62.9324H192.009Z" fill="white"/>
<path d="M195.199 65.6582V58.9302H196.359V63.5122L199.259 58.9302H200.361V65.6582H199.201V61.0762L196.301 65.6582H195.199ZM195.895 55.7402H196.881C196.881 56.3202 197.229 56.8422 197.693 56.8422C197.751 56.8422 197.751 56.8422 197.809 56.8422C198.273 56.8422 198.679 56.3782 198.679 55.7982V55.7402H199.665C199.665 57.1322 198.853 58.0022 197.751 58.0022C196.649 58.0022 195.895 57.1902 195.895 55.7402Z" fill="white"/>
<path d="M202.102 65.6577V58.9297H203.262V61.5397H205.988V58.9297H207.148V65.6577H205.988V62.8737H203.262V65.6577H202.102Z" fill="white"/>
<path d="M209.351 59.7999C209.873 59.1039 210.569 58.7559 211.323 58.7559C211.845 58.7559 212.309 58.9299 212.715 59.2779C213.527 59.9739 213.875 61.0759 213.875 62.3519V62.7579H209.757C209.873 63.9179 210.685 64.5559 211.787 64.5559C212.425 64.5559 213.005 64.3239 213.527 63.9759V65.2519C213.005 65.7159 212.367 65.8899 211.555 65.8899C210.801 65.8899 209.989 65.5419 209.467 64.9039C208.887 64.2659 208.597 63.2799 208.597 62.3519C208.539 61.3659 208.829 60.4379 209.351 59.7999ZM212.657 61.5979C212.657 61.1919 212.483 60.7859 212.251 60.4959C211.961 60.1479 211.613 59.9739 211.207 60.0319C210.453 59.9739 209.815 60.6699 209.699 61.6559L212.657 61.5979Z" fill="white"/>
<path d="M220.256 59.7999C221.242 61.2499 221.242 63.3959 220.256 64.8459C219.792 65.5419 219.096 65.8899 218.4 65.8899C217.588 65.8899 216.95 65.5419 216.486 64.7879V68.4419H215.326V58.9299H216.486V59.8579C216.95 59.1039 217.588 58.7559 218.4 58.7559C219.096 58.7559 219.792 59.1039 220.256 59.7999ZM216.428 61.3079V63.3959C216.776 64.1499 217.356 64.5559 218.052 64.6139C218.516 64.6139 218.98 64.3819 219.27 63.9759C219.618 63.5699 219.792 62.9899 219.734 62.4099C219.734 61.8299 219.56 61.2499 219.27 60.8439C218.98 60.4379 218.516 60.1479 218.052 60.2059C217.356 60.0899 216.776 60.5539 216.428 61.3079Z" fill="white"/>
<path d="M222.809 64.8459C221.707 63.4539 221.707 61.1919 222.809 59.7999C224.027 58.4079 225.825 58.4079 227.043 59.7999C227.565 60.4379 227.913 61.3659 227.855 62.2939C227.855 63.2219 227.565 64.1499 227.043 64.8459C225.825 66.1799 223.969 66.1799 222.809 64.8459ZM226.173 63.9179C226.869 62.9899 226.869 61.5979 226.173 60.7279C225.825 60.3219 225.361 60.0899 224.897 60.0899C223.911 60.0899 223.099 61.1339 223.099 62.4099C223.099 62.9899 223.273 63.5119 223.621 63.9179C224.317 64.7879 225.477 64.7879 226.173 63.9179Z" fill="white"/>
<path d="M229.188 65.6577V58.9297H232.146C233.248 58.9297 233.828 59.6837 233.828 60.6697C233.828 61.3077 233.595 61.8297 233.131 62.1197C233.827 62.4097 234.176 62.9317 234.176 63.8597C234.176 65.0197 233.479 65.7157 232.319 65.7157H229.188V65.6577ZM230.406 61.6557H231.856C232.378 61.6557 232.668 61.3657 232.668 60.9017C232.668 60.3797 232.378 60.1477 231.856 60.1477H230.406V61.6557ZM230.406 64.4977H232.088C232.668 64.4977 232.958 64.2077 232.958 63.6857C232.958 63.1637 232.61 62.8737 232.088 62.8737H230.348L230.406 64.4977Z" fill="white"/>
</svg>
