<svg width="285" height="94" viewBox="0 0 285 94" fill="none" xmlns="http://www.w3.org/2000/svg">
<path fill-rule="evenodd" clip-rule="evenodd" d="M261.776 24.3392C261.202 24.3392 260.756 24.4667 260.501 24.4667C260.118 24.5942 259.863 24.7217 259.672 24.913C259.481 25.168 259.417 25.3592 259.29 25.7417C259.226 25.9967 259.226 26.443 259.226 26.8892V39.8305C259.226 40.2767 259.226 40.6592 259.29 40.8505C259.29 41.1692 259.353 41.4242 259.545 41.6792C259.736 41.8067 259.991 41.9342 260.373 41.998C260.628 41.998 261.075 42.1255 261.648 42.1255H262.732C263.561 42.1255 264.198 41.998 264.645 41.8705C265.091 41.743 265.537 41.5517 265.92 41.1692C266.175 40.9142 266.557 40.468 266.812 40.0217C267.003 39.448 267.258 38.8742 267.641 38.173L268.342 38.3005C268.278 38.7467 268.151 39.1292 268.087 39.5755C268.023 40.0217 267.896 40.468 267.832 40.978C267.768 41.2967 267.641 41.8067 267.641 42.1255C267.577 42.5717 267.577 42.8267 267.577 43.018H264.517C263.625 43.018 262.86 43.018 262.222 43.018C261.585 43.018 261.075 43.018 260.565 43.018C260.118 43.018 259.736 43.018 259.417 43.018C259.035 43.018 258.78 43.018 258.525 43.018H257.823C257.632 43.018 257.25 43.018 256.995 43.018C256.612 43.018 256.357 43.018 255.975 43.018C255.72 43.018 255.337 43.018 255.082 43.018C254.827 43.018 254.508 43.018 254.381 43.018V42.3167C254.955 42.3167 255.401 42.1892 255.656 42.1892C256.038 42.0617 256.293 41.9342 256.485 41.743C256.676 41.6155 256.74 41.2967 256.867 41.0417C256.931 40.723 256.931 40.213 256.931 39.7667V26.1242C256.931 25.8055 256.931 25.5505 256.867 25.2955C256.867 25.0405 256.676 24.8492 256.485 24.7217C256.293 24.5942 256.038 24.4667 255.783 24.403C255.401 24.403 254.955 24.2755 254.445 24.2755V23.5742C254.7 23.5742 255.018 23.5742 255.273 23.5742C255.528 23.5742 255.911 23.5742 256.293 23.5742C256.676 23.5742 256.995 23.5742 257.377 23.5742C257.76 23.5742 258.078 23.5742 258.461 23.5742C258.716 23.5742 259.035 23.5742 259.29 23.5742C259.672 23.5742 259.927 23.5742 260.31 23.5742C260.565 23.5742 260.947 23.5742 261.202 23.5742C261.457 23.5742 261.776 23.5742 261.903 23.5742L261.776 24.3392Z" fill="white" stroke="white" stroke-width="0.216"/>
<path fill-rule="evenodd" clip-rule="evenodd" d="M32.2762 39.4475C32.0212 40.0212 31.575 40.595 31.065 41.0412C30.4913 41.4875 29.9812 41.87 29.28 42.0612C28.6425 42.1887 27.9412 42.3162 27.1763 42.3162C25.9012 42.3162 24.7537 42.0612 23.7337 41.615C22.8412 41.0412 22.0125 40.4675 21.375 39.575C20.7375 38.7463 20.2275 37.7262 19.9087 36.5787C19.5262 35.4312 19.335 34.2837 19.335 32.8812C19.335 31.6062 19.5262 30.4587 19.9087 29.3112C20.2912 28.2912 20.8012 27.335 21.4388 26.57C22.14 25.8687 22.9687 25.295 24.0525 24.8487C25.0725 24.4025 26.22 24.1475 27.495 24.1475C28.1962 24.1475 28.8337 24.275 29.4075 24.4662C30.045 24.5937 30.4913 24.9125 30.9375 25.295C31.3837 25.6137 31.6388 26.1875 31.9575 26.7612C32.2125 27.335 32.4037 28.0362 32.5312 28.8012L33.36 28.6737C33.36 27.845 33.36 26.9525 33.36 26.2512C33.36 25.4225 33.4237 24.6575 33.5513 23.7012C32.7225 23.4462 31.83 23.3825 30.9375 23.255C30.2362 23.1275 29.5987 23.1275 28.9612 23H27.75C26.4113 23.1275 25.0087 23.3187 23.8612 23.7012C22.395 24.02 21.2475 24.7212 20.1638 25.6775C19.08 26.5062 18.2512 27.59 17.6137 28.865C16.9762 30.14 16.5938 31.6062 16.5938 33.3275V33.455C16.5938 34.9212 16.8487 36.1962 17.4225 37.4712C17.9962 38.7462 18.6975 39.7662 19.59 40.5312C20.4825 41.4237 21.5662 42.125 22.8412 42.5712C24.1163 43.0175 25.455 43.2725 26.9213 43.2725H27.1125C28.1325 43.2725 29.2162 43.145 30.1725 43.0175C31.1925 42.7625 32.1488 42.5712 33.2325 42.1887C33.2962 41.2962 33.4237 40.4675 33.615 39.6387C33.6788 38.9375 33.87 38.045 34.1887 37.0887L33.36 36.9612C33.0412 38.1087 32.6588 38.8737 32.2762 39.4475Z" fill="white" stroke="white" stroke-width="0.216"/>
<path fill-rule="evenodd" clip-rule="evenodd" d="M58.3498 24.7848C58.5411 24.9123 58.6048 25.1035 58.7323 25.3585C58.7961 25.6135 58.7961 25.8048 58.7961 26.1873V31.5423H74.1598V26.8248C74.1598 26.3785 74.1598 25.9323 74.2236 25.6773C74.2236 25.3585 74.4148 25.1035 74.6061 24.8485C74.6698 24.5935 74.9886 24.5298 75.3073 24.4023C75.5623 24.4023 76.0086 24.2748 76.4548 24.2748V23.5735C76.2636 23.5735 76.0086 23.5735 75.7536 23.5735C75.5623 23.5735 75.1798 23.5735 74.9248 23.5735C74.6698 23.5735 74.2873 23.5735 74.0323 23.5735C73.7773 23.5735 73.4586 23.5735 73.2036 23.5735C72.8211 23.5735 72.5023 23.5735 72.1198 23.5735C71.8648 23.5735 71.4823 23.5735 71.0998 23.5735C70.7173 23.5735 70.4623 23.5735 70.0798 23.5735C69.8248 23.5735 69.5061 23.5735 69.3786 23.5735L69.3148 24.2748C69.9523 24.2748 70.3348 24.4023 70.6536 24.4023C70.9086 24.5298 71.2273 24.6573 71.3548 24.721C71.5461 24.8485 71.6098 25.0398 71.7373 25.2948C71.7373 25.5498 71.7373 25.741 71.7373 26.1235V29.311C71.7373 29.7573 71.2911 30.0123 70.9086 30.0123H61.8561C61.4098 30.0123 61.0273 29.7573 61.0273 29.311V26.761C61.0273 26.3148 61.0911 25.8685 61.0911 25.6135C61.1548 25.2948 61.2823 25.0398 61.4736 24.7848C61.6648 24.5298 61.8561 24.466 62.1748 24.3385C62.4298 24.3385 62.8761 24.211 63.3223 24.211V23.5098H62.6211C62.3661 23.5098 62.0473 23.5098 61.7923 23.5098C61.5373 23.5098 61.1548 23.5098 60.8998 23.5098H59.1148C58.8598 23.5098 58.4773 23.5098 58.2223 23.5098C57.8398 23.5098 57.5211 23.5098 57.1386 23.5098H56.3098L56.2461 24.211C56.8198 24.211 57.2661 24.3385 57.5848 24.3385C57.9673 24.5935 58.1586 24.721 58.3498 24.7848Z" fill="white" stroke="white" stroke-width="0.216"/>
<path fill-rule="evenodd" clip-rule="evenodd" d="M74.478 41.8705C74.2868 41.743 74.223 41.5518 74.223 41.2968C74.1593 41.0418 74.1593 40.8506 74.1593 40.4681V34.0293H58.7955V39.7668C58.7955 40.213 58.7955 40.6593 58.7318 40.9143C58.668 41.233 58.5405 41.4881 58.3493 41.7431C58.158 41.9981 57.903 42.0618 57.648 42.0618C57.2655 42.1893 56.9468 42.3168 56.373 42.3168L56.4368 43.0181C56.628 43.0181 56.8193 43.0181 57.0743 43.0181C57.3293 43.0181 57.648 43.0181 57.903 43.0181C58.2855 43.0181 58.5405 43.0181 58.7955 43.0181C59.178 43.0181 59.433 43.0181 59.688 43.0181C59.943 43.0181 60.3255 43.0181 60.708 43.0181C61.0905 43.0181 61.4093 43.0181 61.7918 43.0181C62.0468 43.0181 62.4293 43.0181 62.6843 43.0181C63.0668 43.0181 63.258 43.0181 63.513 43.0181V42.3168C62.9393 42.3168 62.493 42.1893 62.238 42.1893C61.8555 42.0618 61.6005 41.9343 61.5368 41.8705C61.3455 41.743 61.2818 41.5518 61.1543 41.2968C61.0905 41.0418 61.0905 40.8506 61.0905 40.4681V36.2605C61.0905 35.8143 61.473 35.5593 61.9193 35.5593H70.9718C71.418 35.5593 71.8005 35.878 71.8005 36.4518V39.7668C71.8005 40.213 71.8005 40.6593 71.7368 41.0418C71.7368 41.2968 71.673 41.6156 71.4818 41.7431C71.2905 41.9981 71.0355 42.0618 70.7805 42.1893C70.398 42.1893 70.0793 42.3168 69.5055 42.3168L69.5693 43.0181C69.7605 43.0181 69.9518 43.0181 70.2068 43.0181C70.4618 43.0181 70.7805 43.0181 71.0355 43.0181C71.2905 43.0181 71.673 43.0181 71.928 43.0181C72.183 43.0181 72.5655 43.0181 72.7568 43.0181C73.1393 43.0181 73.458 43.0181 73.8405 43.0181C74.223 43.0181 74.5418 43.0181 74.8605 43.0181C75.243 43.0181 75.5618 43.0181 75.8805 43.0181C76.263 43.0181 76.3905 43.0181 76.7093 43.0181V42.3168C76.1355 42.3168 75.6893 42.1893 75.3705 42.1893C74.9243 42.1255 74.6693 41.998 74.478 41.8705Z" fill="white" stroke="white" stroke-width="0.216"/>
<path fill-rule="evenodd" clip-rule="evenodd" d="M196.114 23.6387C195.476 23.6387 194.839 23.6387 194.329 23.6387C193.627 23.6387 192.862 23.6387 192.225 23.6387C191.587 23.6387 191.077 23.6387 190.504 23.6387V24.3399C191.141 24.4674 191.715 24.4674 192.161 24.5949C192.544 24.7224 192.862 24.8499 193.054 25.0412C193.309 25.1687 193.5 25.4874 193.564 25.8699C193.628 26.1887 193.628 26.6987 193.628 27.3362V35.8149C193.628 36.8349 193.564 37.7912 193.181 38.5562C192.926 39.3849 192.48 40.0224 192.034 40.5324C191.46 40.9787 190.95 41.3612 190.312 41.5524C189.611 41.8074 188.974 41.8712 188.209 41.8712C187.508 41.8712 186.87 41.7437 186.105 41.5524C185.467 41.4249 184.83 41.1062 184.32 40.6599C183.874 40.2137 183.428 39.6399 183.045 38.9387C182.79 38.2374 182.599 37.4724 182.599 36.3887V27.0174C182.599 26.5712 182.599 26.1249 182.662 25.8699C182.726 25.5512 182.918 25.1687 183.109 25.0412C183.3 24.7862 183.555 24.7224 183.938 24.5949C184.32 24.4674 184.766 24.3399 185.404 24.3399L185.34 23.6387C185.085 23.6387 184.83 23.6387 184.511 23.6387C184.256 23.6387 183.874 23.6387 183.619 23.6387C183.236 23.6387 182.917 23.6387 182.599 23.6387C182.216 23.6387 181.961 23.6387 181.706 23.6387C181.324 23.6387 181.005 23.6387 180.622 23.6387C180.24 23.6387 179.921 23.6387 179.539 23.6387C179.156 23.6387 178.837 23.6387 178.455 23.6387C178.2 23.6387 177.881 23.6387 177.626 23.6387L177.562 24.3399C178.2 24.4674 178.646 24.4674 179.029 24.5949C179.411 24.5949 179.666 24.7224 179.921 24.9137C180.113 25.0412 180.176 25.2324 180.304 25.4874C180.304 25.7424 180.367 25.9337 180.367 26.3162V37.0899C180.367 38.2374 180.559 39.1299 180.941 39.9587C181.324 40.7874 181.834 41.4249 182.471 41.9349C183.109 42.5087 183.937 42.8274 184.766 43.2099C185.595 43.4649 186.487 43.5287 187.38 43.5287C188.272 43.5287 189.165 43.4012 190.121 43.0824C191.014 42.8274 191.842 42.3812 192.544 41.8074C193.245 41.2337 193.819 40.5324 194.265 39.6399C194.711 38.7474 194.903 37.5999 194.903 36.1974V27.7187C194.903 26.8899 194.966 26.3162 195.094 25.9974C195.157 25.5512 195.285 25.1687 195.54 24.9774C195.731 24.7224 195.986 24.6587 196.369 24.5312C196.751 24.5312 197.261 24.4037 197.835 24.4037V23.7024C197.261 23.6387 196.751 23.6387 196.114 23.6387Z" fill="white" stroke="white" stroke-width="0.216"/>
<path fill-rule="evenodd" clip-rule="evenodd" d="M220.721 24.7855C220.912 24.913 220.976 25.1042 221.103 25.3592C221.103 25.6142 221.103 25.8055 221.103 26.188V31.543H229.008L228.753 30.1405L224.227 30.013C223.653 30.013 223.526 29.758 223.526 29.4392V25.2955C223.526 24.9767 223.59 24.7217 223.717 24.5942C223.781 24.5942 224.1 24.4667 224.418 24.4667H227.287C227.925 24.4667 228.498 24.5942 228.945 24.7217C229.391 24.8492 229.773 25.0405 230.028 25.2955C230.283 25.5505 230.475 25.9967 230.602 26.443C230.793 26.8892 230.985 27.463 231.048 28.1642H231.877C231.877 27.2717 231.877 26.443 231.941 25.7417C231.941 24.913 232.005 24.2755 232.132 23.5742C229.518 23.5742 227.415 23.5742 225.693 23.5742C224.036 23.5742 222.952 23.5742 222.442 23.5742C222.187 23.5742 221.868 23.5742 221.55 23.5742C221.295 23.5742 220.912 23.5742 220.53 23.5742C220.147 23.5742 219.892 23.5742 219.51 23.5742C219.127 23.5742 218.872 23.5742 218.617 23.5742V24.2755C219.191 24.2755 219.637 24.403 219.956 24.403C220.211 24.5942 220.53 24.7217 220.721 24.7855Z" fill="white" stroke="white" stroke-width="0.216"/>
<path fill-rule="evenodd" clip-rule="evenodd" d="M231.367 40.0218C231.112 40.4681 230.857 40.9143 230.474 41.1693C230.219 41.4881 229.773 41.743 229.263 41.8705C228.689 41.998 228.116 42.1256 227.351 42.1256H225.821C225.311 42.1256 224.928 41.998 224.546 41.998C224.163 41.8705 223.972 41.743 223.844 41.6793C223.653 41.4243 223.462 41.2331 223.462 40.8506C223.398 40.5956 223.398 40.2768 223.398 39.8306V36.2605C223.462 35.6868 223.589 35.5593 224.099 35.5593L228.626 35.3043L228.881 34.0293H221.103L221.039 39.7668C221.039 40.213 221.039 40.6593 220.976 41.0418C220.976 41.2968 220.784 41.6156 220.593 41.7431C220.402 41.9981 220.147 42.0618 219.764 42.1893C219.318 42.1893 218.872 42.3168 218.234 42.3168L218.298 43.0181C218.489 43.0181 218.744 43.0181 219.127 43.0181C219.509 43.0181 219.764 43.0181 220.147 43.0181C220.529 43.0181 220.848 43.0181 221.167 43.0181C221.549 43.0181 221.804 43.0181 222.059 43.0181C222.888 43.0181 224.036 43.0181 225.693 43.0181C227.414 43.0181 229.518 43.0181 232.196 43.0181C232.196 42.7631 232.196 42.5718 232.259 42.1256C232.259 41.8068 232.323 41.2968 232.451 40.9781C232.514 40.5318 232.642 40.0856 232.706 39.5756C232.769 39.1293 232.897 38.7468 232.961 38.3006L232.132 38.173C231.941 38.8743 231.686 39.4481 231.367 40.0218Z" fill="white" stroke="white" stroke-width="0.216"/>
<path fill-rule="evenodd" clip-rule="evenodd" d="M156.271 42.1884C155.888 42.0609 155.697 42.0609 155.442 41.9334C155.251 41.8059 154.996 41.6146 154.805 41.3596C154.613 41.1046 154.422 40.9134 154.167 40.5309C153.976 40.2759 153.721 39.8296 153.466 39.3834C153.211 38.9371 152.892 38.3634 152.573 37.7896C152.191 37.0884 151.872 36.3871 151.362 35.7496C150.916 34.9209 150.533 34.1559 150.087 33.3271C150.597 33.0721 151.171 32.8809 151.617 32.4984C152.191 32.1796 152.51 31.6696 152.892 31.2234C153.275 30.7771 153.53 30.3309 153.721 29.7571C153.912 29.1834 153.976 28.6096 153.976 28.0359C153.976 27.1434 153.785 26.3146 153.466 25.7409C153.02 25.1671 152.446 24.5934 151.808 24.2746C151.171 23.9559 150.47 23.7009 149.641 23.5734C148.812 23.4459 148.111 23.3184 147.282 23.3184C146.772 23.3184 146.198 23.4459 145.625 23.4459C145.051 23.5734 144.541 23.5734 143.967 23.5734C143.585 23.5734 143.33 23.5734 142.947 23.5734C142.565 23.5734 142.246 23.5734 141.863 23.5734C141.608 23.5734 141.226 23.5734 140.971 23.5734C140.716 23.5734 140.397 23.5734 140.27 23.5734V24.2746C140.843 24.2746 141.29 24.4021 141.545 24.4021C141.927 24.5296 142.182 24.6571 142.373 24.7209C142.437 24.8484 142.628 25.0396 142.628 25.2946C142.692 25.5496 142.692 25.7409 142.692 26.1234V39.7659C142.692 40.2121 142.692 40.6584 142.628 41.0409C142.565 41.2959 142.437 41.6146 142.246 41.7421C142.055 41.9971 141.863 42.0609 141.545 42.1884C141.29 42.1884 140.843 42.3159 140.27 42.3159L140.333 43.0171C140.525 43.0171 140.716 43.0171 140.971 43.0171C141.226 43.0171 141.545 43.0171 141.863 43.0171C142.118 43.0171 142.437 43.0171 142.756 43.0171C143.011 43.0171 143.33 43.0171 143.585 43.0171C144.222 43.0171 144.86 43.0171 145.561 43.0171C146.262 43.0171 146.9 43.0171 147.537 43.0171L147.601 42.3159C146.963 42.3159 146.39 42.3159 146.135 42.1884C145.752 42.0609 145.497 41.9334 145.306 41.8696C145.115 41.7421 145.051 41.5509 144.923 41.2959C144.923 41.0409 144.86 40.8496 144.86 40.4671V26.2509C144.86 25.9321 144.923 25.6771 144.923 25.4221C144.923 25.1671 144.987 25.1034 145.115 24.8484C145.178 24.7209 145.37 24.5934 145.688 24.5934C145.88 24.4659 146.262 24.4659 146.581 24.4659C147.92 24.4659 149.131 24.7209 149.96 25.3584C150.788 25.9321 151.171 26.9521 151.171 28.3546C151.171 29.9484 150.725 31.2234 149.896 31.9246C149.258 32.4984 148.557 32.8171 147.473 32.9446L147.41 34.0921C147.473 34.0921 147.665 34.2196 147.792 34.2196C147.856 34.3471 147.983 34.4746 148.047 34.5384C148.111 34.5384 148.111 34.7934 148.238 34.8571C148.748 35.6859 149.258 36.5784 149.705 37.4071C150.151 38.2996 150.597 39.1284 150.98 39.8296C151.426 40.5309 151.681 41.2321 152.063 41.8059C152.318 42.2521 152.51 42.6984 152.637 42.9534C152.828 42.9534 153.083 42.9534 153.275 42.9534C153.53 42.9534 153.721 42.9534 153.912 42.9534C154.486 42.9534 155.123 42.9534 155.697 42.9534C156.398 42.9534 156.845 42.9534 157.355 42.9534V42.2521C156.908 42.3159 156.59 42.1884 156.271 42.1884Z" fill="white" stroke="white" stroke-width="0.216"/>
<path fill-rule="evenodd" clip-rule="evenodd" d="M118.466 42.1252C118.084 42.1252 117.829 41.9977 117.638 41.8064C117.383 41.6789 117.191 41.3602 117 40.9777C116.936 40.6589 116.745 40.1489 116.554 39.5752L112.028 26.3789C111.836 25.9327 111.773 25.4864 111.581 24.9127C111.39 24.4664 111.199 23.8927 111.135 23.1914H110.434L109.86 23.3189C109.669 23.6377 109.605 24.0202 109.478 24.2114C109.286 24.5302 109.223 24.9127 109.031 25.3589L103.294 39.0014C102.911 39.7027 102.72 40.2764 102.465 40.7227C102.274 41.0414 102.019 41.4239 101.764 41.6152C101.573 41.8702 101.254 42.0614 100.935 42.1889C100.553 42.1889 100.106 42.3164 99.6602 42.3164V43.0177C100.234 43.0177 100.68 43.0177 101.19 43.0177C101.7 43.0177 102.21 43.0177 102.72 43.0177C103.358 43.0177 103.931 43.0177 104.569 43.0177C105.206 43.0177 105.716 43.0177 106.226 43.0177L106.29 42.3164C105.461 42.1889 104.824 42.1889 104.569 42.0614C104.186 41.8064 103.995 41.6152 103.995 41.2327C103.995 40.9777 104.186 40.5314 104.441 39.7664L109.541 26.5702L114.068 40.0852C114.131 40.3402 114.131 40.5314 114.259 40.7864C114.323 41.0414 114.323 41.1052 114.323 41.3602C114.323 41.6789 114.131 41.9339 113.876 42.0614C113.494 42.1889 112.984 42.3164 112.219 42.3164L112.283 43.0177C112.856 43.0177 113.366 43.0177 113.94 43.0177C114.578 43.0177 115.088 43.0177 115.661 43.0177C116.363 43.0177 117 43.0177 117.765 43.0177C118.403 43.0177 119.04 43.0177 119.55 43.0177L119.614 42.3164C119.168 42.1889 118.721 42.1889 118.466 42.1252Z" fill="white" stroke="white" stroke-width="0.216"/>
<path fill-rule="evenodd" clip-rule="evenodd" d="M163.665 70.2384H121.781V67.6884H163.665V70.2384ZM165.514 66.3496H119.678V71.7046H165.514V67.6884V66.3496Z" fill="white" stroke="white" stroke-width="0.216"/>
</svg>
