<svg width="285" height="94" viewBox="0 0 285 94" fill="none" xmlns="http://www.w3.org/2000/svg">
<path d="M209.675 50.215H202.167C203.375 47.17 204.897 43.6 206.157 40.03C207.05 43.1275 208.257 46.4875 209.675 50.215ZM212.037 56.41C212.93 58.72 213.035 60.5575 212.93 61.9225H220.437C219.335 60.5575 218.6 58.405 217.707 56.095L208.1 31.1575H207.155L197.075 56.0425C196.13 58.3525 195.237 60.0325 194.135 61.87H198.597C198.387 60.505 198.755 58.3525 199.647 56.0425L200.96 52.7875H210.568L212.037 56.41ZM101.315 50.215H93.8075C95.015 47.17 96.5375 43.6 97.7975 40.03C98.69 43.1275 99.8975 46.4875 101.315 50.215ZM83.2025 61.87L84.1475 57.46C82.835 58.405 80.7875 59.2975 78.2675 59.2975H74.0675V37.51C74.0675 35.1475 74.3825 33.0475 75.0125 31.6825H67.82C68.5025 33.0475 68.765 35.1475 68.765 37.51V56.5675C68.765 59.455 68.3975 60.715 67.82 61.87H83.2025ZM118.902 36.8275C118.902 34.885 120.53 33.415 123.155 33.415C126.2 33.415 129.035 34.885 131.292 37.405V32.8375C129.035 31.6825 125.885 31 123.417 31C117.852 31 114.23 34.2025 114.23 38.9275C114.23 47.8525 128.3 48.955 128.3 55.9375C128.3 58.8775 125.78 60.19 122.997 60.19C119.427 60.19 116.592 58.3525 114.283 55.78V60.3475C116.592 61.765 119.532 62.5525 122.525 62.5525C129.035 62.5525 132.657 58.3 132.657 53.47C132.762 44.545 118.902 43.2325 118.902 36.8275ZM140.375 36.8275C140.375 34.885 142.002 33.415 144.627 33.415C147.673 33.415 150.507 34.885 152.765 37.405V32.8375C150.507 31.6825 147.357 31 144.89 31C139.325 31 135.702 34.2025 135.702 38.9275C135.702 47.8525 149.772 48.955 149.772 55.9375C149.772 58.8775 147.252 60.19 144.47 60.19C140.9 60.19 138.065 58.3525 135.755 55.78V60.3475C138.065 61.765 141.005 62.5525 143.997 62.5525C150.507 62.5525 154.13 58.3 154.13 53.47C154.235 44.545 140.375 43.2325 140.375 36.8275ZM63.305 60.085V55.255C63.305 52.8925 63.62 50.7925 64.25 49.4275H57.425C58.1075 50.7925 58.37 52.8925 58.37 55.255V59.455C56.9525 59.77 55.4825 59.98 54.1175 59.98C47.2925 59.98 43.7225 54.4675 43.7225 46.8025C43.7225 38.1925 48.3425 33.5725 54.2225 33.5725C57.7925 33.5725 60.575 35.2 63.095 37.3525V33.0475C60.785 31.945 57.53 31.0525 54.275 31.0525C44.9825 31.0525 38 37.6675 38 47.3275C38 56.9875 44.2475 62.5525 53.015 62.5525C56.6375 62.5525 60.155 61.87 63.305 60.085ZM103.677 56.41C104.57 58.72 104.675 60.5575 104.57 61.9225H112.025C110.922 60.5575 110.188 58.405 109.295 56.095L99.74 31.21H98.795L88.715 56.095C87.77 58.405 86.8775 60.085 85.775 61.9225H90.2375C90.0275 60.5575 90.395 58.405 91.2875 56.095L92.6 52.84H102.207L103.677 56.41ZM245.847 62.4475H246.95V37.5625C246.95 35.2 247.265 33.1 247.947 31.735H243.695C244.325 33.1 244.64 35.1475 244.64 37.5625V42.025C244.64 46.8025 244.64 49.9 244.797 53.68C242.907 51.2125 240.387 48.115 236.345 43.5475L225.32 31.1575H224.165V56.0425C224.165 58.4575 223.798 60.505 223.115 61.87H227.42C226.79 60.505 226.475 58.4575 226.475 56.0425V51.58C226.475 47.17 226.423 43.3375 226.265 39.925C229.048 43.6525 232.302 47.2225 235.557 50.8975L245.847 62.4475ZM184.58 56.0425C184.947 58.405 184.947 60.505 184.475 61.87H191.562C190.775 60.505 190.092 58.405 189.83 56.0425L186.628 31.1575H185.157L177.23 47.7475C176.232 49.8475 175.13 52.0525 174.237 54.1C173.345 51.9475 172.19 49.2175 170.72 46.225L163.317 31.105H161.795L158.75 55.57C158.435 58.1425 157.7 60.4 157.017 61.8175H161.27C160.587 60.4525 160.797 57.985 161.06 55.6225L161.637 50.8975C162.005 47.485 162.425 44.2825 162.635 41.185C163.79 44.8075 165.732 48.6925 167.202 51.6325L172.4 62.185H172.872L178.962 49.4275C180.222 46.75 181.43 44.125 182.585 41.29C182.847 44.7025 183.267 48.43 183.95 52.63L184.58 56.0425Z" fill="white"/>
</svg>
