<svg width="131" height="50" viewBox="0 0 131 50" fill="none" xmlns="http://www.w3.org/2000/svg">
<g clip-path="url(#clip0_130_1615)">
<path d="M11.7553 16.0323C12.4024 16.0323 12.8697 16.2298 12.8697 16.9938V35.296H17.3993V18.7794C17.3993 16.7105 17.0937 14.4957 13.4629 14.4957H3.9364C0.314553 14.4957 0 16.7105 0 18.7794V35.296H4.53855V16.9938C4.53855 16.2298 4.99689 16.0323 5.65296 16.0323H11.7553Z" fill="white"/>
<path d="M39.5625 35.2949L44.6582 17.5678C45.3053 15.4474 46.2759 13.9537 48.8373 13.9537C51.866 13.9537 52.3692 16.0312 53.1691 18.5293L58.3637 35.2949H53.5735L51.6593 28.9853H43.4899L41.6745 35.2949H39.5625ZM51.0571 26.9679L48.5767 18.8727C48.2262 17.6708 48.2711 16.8982 47.5701 16.8982C46.8601 16.8982 46.7612 17.7223 46.4557 18.9242L44.0831 26.9679H51.0571Z" fill="white"/>
<path d="M33.2494 35.2922L28.2525 18.8699C27.902 17.6681 27.9559 16.8955 27.2549 16.8955C26.5449 16.8955 26.446 17.7196 26.1405 18.9214L21.3503 35.3008H19.2383L24.325 17.5737C24.9721 15.4533 25.9427 13.9596 28.5041 13.9596C31.5328 13.9596 32.0361 16.037 32.8359 18.5351L38.0395 35.3008H33.2494V35.2922Z" fill="white"/>
<path d="M60.2031 35.2951V14.4947H64.7057V23.5514H72.9919V14.4947H77.6024V35.2951H72.9919V25.5688H64.7057V35.2951H60.2031Z" fill="white"/>
<path d="M94.3574 16.0313H85.7387C85.0736 16.0313 84.6243 16.2288 84.6243 16.9928V23.5428H92.6408V25.5687H84.6243V32.3076C84.6243 33.269 85.2264 33.7498 86.3408 33.7498H94.9685V35.295H83.5638C81.3979 35.295 80.0857 34.3335 80.0857 31.638V18.7784C80.0857 16.7095 80.3913 14.4947 84.0221 14.4947H94.3574V16.0313Z" fill="white"/>
<path d="M103.015 35.295V16.0313H96.625V14.4946H114.024V16.0313H107.634V35.295H103.015Z" fill="white"/>
<path d="M111.883 35.2949L116.979 17.5678C117.635 15.4474 118.596 13.9537 121.167 13.9537C124.196 13.9537 124.699 16.0312 125.499 18.5293L130.693 35.2949H125.903L123.989 28.9853H115.819L114.004 35.2949H111.883ZM123.378 26.9679L120.906 18.8727C120.556 17.6708 120.61 16.8982 119.9 16.8982C119.19 16.8982 119.091 17.7223 118.794 18.9242L116.422 26.9679H123.378Z" fill="white"/>
</g>
<defs>
<clipPath id="clip0_130_1615">
<rect width="131" height="50" fill="white"/>
</clipPath>
</defs>
</svg>
