<svg width="32" height="32" viewBox="0 0 32 32" fill="none" xmlns="http://www.w3.org/2000/svg">
<g clip-path="url(#clip0_98_99)">
<rect width="32" height="32" fill="#CAD411"/>
<path d="M25.113 22.5996H7.88647C7.46582 22.5995 7.05725 22.4589 6.72568 22.2C6.3941 21.9412 6.15855 21.5789 6.05643 21.1708C5.95432 20.7628 5.99151 20.3323 6.16209 19.9478C6.33267 19.5632 6.62686 19.2468 6.99791 19.0486L16.1907 14.1451C16.2859 14.0947 16.392 14.0684 16.4998 14.0684C16.6075 14.0684 16.7136 14.0947 16.8089 14.1451L26.0016 19.0479C26.3725 19.2463 26.6664 19.5629 26.8369 19.9474C27.0073 20.3319 27.0444 20.7623 26.9423 21.1703C26.8403 21.5783 26.6048 21.9405 26.2734 22.1994C25.942 22.4584 25.5336 22.5992 25.113 22.5996ZM16.4998 15.4688L7.6161 20.2069C7.50291 20.267 7.41311 20.3632 7.361 20.4803C7.30889 20.5973 7.29748 20.7285 7.32859 20.8528C7.35971 20.9771 7.43155 21.0874 7.53266 21.1661C7.63378 21.2448 7.75834 21.2874 7.88647 21.2871H25.113C25.241 21.2869 25.3653 21.244 25.4662 21.1652C25.567 21.0864 25.6386 20.9761 25.6696 20.8519C25.7006 20.7277 25.6892 20.5967 25.6372 20.4797C25.5853 20.3627 25.4957 20.2665 25.3828 20.2062L16.4998 15.4688Z" fill="#202020"/>
<path d="M16.5 15.3809C16.326 15.3809 16.159 15.3117 16.036 15.1887C15.9129 15.0656 15.8438 14.8987 15.8438 14.7246V13.5329C15.8328 13.1077 15.9215 12.6859 16.1028 12.3012C16.2841 11.9164 16.5529 11.5795 16.8878 11.3174C16.9783 11.2511 17.0503 11.1627 17.0969 11.0608C17.1435 10.9588 17.1632 10.8465 17.1541 10.7348C17.145 10.623 17.1074 10.5154 17.0449 10.4223C16.9824 10.3292 16.8971 10.2537 16.7972 10.2029C16.6972 10.1521 16.5858 10.1278 16.4738 10.1323C16.3618 10.1367 16.2527 10.1699 16.1571 10.2284C16.0615 10.287 15.9825 10.3692 15.9276 10.467C15.8728 10.5648 15.8439 10.675 15.8438 10.7871C15.8438 10.9612 15.7746 11.1281 15.6515 11.2512C15.5285 11.3742 15.3615 11.4434 15.1875 11.4434C15.0135 11.4434 14.8465 11.3742 14.7235 11.2512C14.6004 11.1281 14.5313 10.9612 14.5313 10.7871C14.5312 10.4506 14.6175 10.1197 14.7818 9.826C14.9461 9.5323 15.1829 9.28562 15.4697 9.1095C15.7564 8.93338 16.0835 8.83371 16.4198 8.82C16.756 8.80628 17.0902 8.87898 17.3903 9.03116C17.6904 9.18334 17.9466 9.40992 18.1342 9.68926C18.3219 9.9686 18.4348 10.2914 18.4622 10.6268C18.4896 10.9622 18.4306 11.299 18.2908 11.6051C18.1509 11.9112 17.935 12.1764 17.6635 12.3752C17.4952 12.5158 17.3618 12.6936 17.2738 12.8944C17.1858 13.0953 17.1455 13.3138 17.1562 13.5329V14.7246C17.1562 14.8987 17.0871 15.0656 16.964 15.1887C16.841 15.3117 16.674 15.3809 16.5 15.3809Z" fill="#202020"/>
</g>
<defs>
<clipPath id="clip0_98_99">
<rect width="32" height="32" rx="3" fill="white"/>
</clipPath>
</defs>
</svg>
