<svg width="285" height="94" viewBox="0 0 285 94" fill="none" xmlns="http://www.w3.org/2000/svg">
<mask id="mask0_2001_23" style="mask-type:luminance" maskUnits="userSpaceOnUse" x="39" y="5" width="207" height="85">
<path d="M246 5H39V90H246V5Z" fill="white"/>
</mask>
<g mask="url(#mask0_2001_23)">
<mask id="mask1_2001_23" style="mask-type:luminance" maskUnits="userSpaceOnUse" x="34" y="-59" width="217" height="215">
<path d="M34.3789 -58.9219H250.625V155.598H34.3789V-58.9219Z" fill="white"/>
</mask>
<g mask="url(#mask1_2001_23)">
<path fill-rule="evenodd" clip-rule="evenodd" d="M67.7281 50.3247C66.9164 49.3218 65.7251 48.5706 64.1543 48.0635C62.8103 47.6269 61.195 47.353 59.3113 47.242C60.9268 47.1421 62.3229 46.8905 63.5028 46.4983C64.8989 46.0356 65.9485 45.3989 66.6559 44.5959C67.3632 43.7928 67.7168 42.8418 67.7168 41.7465C67.7168 40.4476 67.2404 39.326 66.2874 38.386C65.3343 37.4424 63.9791 36.7244 62.2224 36.2323C60.4615 35.7363 58.3621 35.4883 55.9125 35.4883H44.6035V61.1717H55.7415C58.7454 61.1717 61.2285 60.9385 63.1827 60.476C65.1371 60.0096 66.5851 59.2656 67.5306 58.2407C68.4762 57.2155 68.9489 55.8685 68.9489 54.203C68.9489 52.6153 68.5396 51.324 67.7281 50.3247ZM48.3941 36.1274H54.3028C56.1418 36.1274 57.966 36.0703 58.996 36.3651C60.2198 36.7151 61.0906 37.0355 61.7906 37.5904C62.4866 38.1419 62.9853 38.7857 63.2796 39.5185C63.5774 40.2513 63.7225 41.0248 63.7225 41.8351C63.7225 43.2524 63.3726 44.3444 62.6652 45.114C61.9579 45.884 60.8527 46.1682 59.6208 46.4754C58.3886 46.7787 56.9456 46.8752 55.272 46.9254H48.4226L48.3941 36.1274ZM63.8974 58.0631C63.1416 59.0511 62.0025 59.5995 60.4576 60.0399C58.9125 60.4839 56.9722 60.5727 54.5357 60.5665L48.3911 60.5667L48.4331 47.8886H55.6803C57.6049 47.8886 59.1653 47.971 60.6023 48.3301C62.0392 48.6854 63.053 49.0976 63.834 49.977C64.6545 50.9003 65.029 52.2899 65.029 54.0773C65.029 55.7465 64.6532 57.075 63.8974 58.0631Z" fill="white"/>
<path fill-rule="evenodd" clip-rule="evenodd" d="M95.0623 58.84C94.6158 57.9148 94.2211 57.0378 93.8749 56.205C93.6516 55.6795 93.4059 55.1985 93.1414 54.7543C92.8735 54.314 92.5757 53.8994 92.2481 53.5146C91.9244 53.1261 91.5893 52.782 91.243 52.4784C90.9004 52.1749 90.5396 51.89 90.1596 51.6272C89.5418 51.2239 88.8941 50.876 88.224 50.591C87.5541 50.3062 86.8318 50.084 86.0576 49.9287C85.8117 49.8804 85.5587 49.8398 85.2982 49.81C86.2064 49.7139 87.0625 49.577 87.8629 49.3958C89.2925 49.0738 90.5134 48.6149 91.5261 48.0189C92.5422 47.4233 93.3164 46.6904 93.8488 45.8208C94.3812 44.9511 94.6418 43.9369 94.6232 42.7823C94.6232 41.4723 94.2694 40.3548 93.5659 39.4294C92.8586 38.508 91.9169 37.7532 90.7405 37.1683C89.5604 36.5875 88.2273 36.1061 86.712 35.8395C85.2006 35.5693 83.6156 35.4883 81.9814 35.4883H71.7891V61.1714H75.6978L75.7297 50.2204L81.2782 50.2111C82.1044 50.2204 82.5404 50.2289 83.0987 50.2547C83.7205 50.2843 84.46 50.4006 85.1412 50.6223C85.8189 50.8408 86.2734 51.1387 87.0625 51.7716C87.4088 52.0564 87.7251 52.3525 88.0194 52.6561C88.3096 52.9596 88.6 53.3 88.8829 53.6738C89.1658 54.0513 89.4637 54.499 89.7726 55.0245C89.8547 55.1642 89.9378 55.3101 90.0214 55.4617C90.3966 56.143 92.4566 60.8496 92.609 61.1714H96.1717C95.8776 60.5424 95.5089 59.7616 95.0623 58.84ZM81.5005 49.2516H75.6978V36.0803H81.5405C82.8138 36.0803 83.9313 36.1503 85.0378 36.3798C86.1766 36.616 87.1222 37.1462 87.9671 37.7752C88.8085 38.408 89.4674 39.1631 89.9401 40.0365C90.4131 40.9134 90.6585 41.8869 90.6774 42.96C90.692 44.4035 90.2901 45.6247 89.4637 46.6312C88.6372 47.6416 87.3951 48.1844 86.0213 48.7025C84.644 49.2205 83.1682 49.2516 81.5005 49.2516Z" fill="white"/>
<path fill-rule="evenodd" clip-rule="evenodd" d="M122.602 35.5107V50.7699C122.602 52.3091 122.334 53.7153 121.802 54.9843C121.266 56.2534 120.484 57.3524 119.456 58.2775C118.429 59.2061 117.189 59.9202 115.738 60.4196C114.286 60.9192 112.644 61.1709 110.809 61.1709C110.749 61.1709 110.686 61.1709 110.626 61.1672C110.563 61.1709 110.5 61.1709 110.437 61.1709C108.687 61.1709 107.053 60.9452 105.541 60.4899C104.026 60.035 102.697 59.3726 101.551 58.4958C100.404 57.6225 99.511 56.5495 98.8744 55.2729C98.2341 53.9962 97.9141 52.5423 97.9141 50.9104V35.4922H101.662V50.892C101.662 52.3277 101.871 53.6301 102.288 54.7992C102.705 55.9722 103.3 56.9748 104.079 57.8074C104.857 58.6402 105.813 59.2801 106.956 59.728C108.043 60.1607 109.261 60.2903 110.616 60.3053C110.675 60.309 110.779 60.3025 110.842 60.3025C112.246 60.3025 113.533 60.139 114.836 59.7022C116.143 59.2657 117.382 58.6037 118.417 57.7859C119.451 56.9719 120.16 56.0509 120.763 54.9114C121.366 53.768 121.641 52.5244 121.641 51.1257L121.632 35.5108L122.602 35.5107Z" fill="white"/>
<path fill-rule="evenodd" clip-rule="evenodd" d="M136.41 61.1714C134.641 61.1714 133.071 61.0433 131.698 60.7871C130.326 60.5315 129.146 60.1419 128.162 59.6185C127.176 59.0953 126.397 58.441 125.823 57.656C125.25 56.8709 124.87 55.9494 124.684 54.8913L126.731 54.7036C126.995 56.0461 127.549 57.167 128.394 58.0656C129.239 58.9642 130.345 59.5635 131.733 60.0074C133.122 60.451 134.794 60.566 136.702 60.566C138.733 60.566 140.263 60.3693 141.543 59.8916C142.823 59.4138 143.881 58.8649 144.494 57.9716C145.107 57.0786 145.413 56.0064 145.413 54.7549C145.413 53.9245 145.204 53.2077 144.785 52.6045C144.366 52.0016 143.75 51.4698 142.936 51.0092C142.122 50.5482 141.128 50.133 139.958 49.7632C138.787 49.3936 137.457 49.0267 135.967 48.6625C133.827 48.1621 132.008 47.5987 130.512 46.973C129.015 46.3474 127.886 45.6138 127.127 44.7716C126.366 43.9298 125.986 42.9402 125.986 41.8022C125.971 40.9491 126.223 40.1414 126.743 39.379C127.262 38.617 128.007 37.9456 128.976 37.3653C129.945 36.7853 131.124 36.3272 132.513 35.9915C133.9 35.656 135.479 35.4883 137.247 35.4883C139.186 35.4883 140.911 35.6989 142.424 36.1196C143.936 36.5407 145.165 37.1123 146.111 37.8345C147.057 38.5572 147.654 39.3734 147.903 40.2836L145.902 40.42C145.717 39.7375 145.348 39.1203 144.797 38.5683C144.246 38.0168 143.563 37.5419 142.749 37.1435C141.935 36.7454 141.035 36.4382 140.051 36.2219C139.065 36.0061 138.061 36.0795 137.038 36.0795C135.456 36.0795 134.113 36.1084 133.013 36.5291C131.911 36.9502 131.066 37.5305 130.477 38.2697C129.887 39.0094 129.593 39.8681 129.593 40.8465C129.593 41.5064 129.806 42.0924 130.232 42.6043C130.659 43.1164 131.233 43.5744 131.954 43.9781C132.676 44.3821 133.509 44.7404 134.454 45.0533C135.401 45.3662 136.394 45.6535 137.433 45.915C139.295 46.3247 140.95 46.7542 142.401 47.2034C143.851 47.653 145.072 48.1676 146.065 48.7479C147.057 49.3279 147.806 50.0191 148.31 50.8213C148.814 51.6233 149.066 52.5818 149.066 53.6969C149.066 55.3351 148.569 56.7089 147.577 57.818C146.584 58.9273 145.145 59.7635 143.261 60.3266C141.377 60.8897 139.093 61.1714 136.41 61.1714Z" fill="white"/>
<path fill-rule="evenodd" clip-rule="evenodd" d="M174.864 35.5185L174.886 56.915L151.775 35.5H151.484V61.1831H152.455L152.454 40.051L175.513 61.1646H175.871L175.834 35.5185H174.864Z" fill="white"/>
<path fill-rule="evenodd" clip-rule="evenodd" d="M181.008 35.4883H184.876V61.1714H181.008V35.4883Z" fill="white"/>
<path fill-rule="evenodd" clip-rule="evenodd" d="M213.954 61.1543H209.822L197.583 48.9777L193.332 53.2645V61.1543H189.609V35.5078L193.332 35.5263V51.8338L209.952 35.5128L211.322 35.5122L199.627 46.975L213.954 61.1543Z" fill="white"/>
<path fill-rule="evenodd" clip-rule="evenodd" d="M240.401 61.1753H236.806L233.549 54.1277L233.415 53.8351L227.171 40.2949L220.745 53.8237L220.601 54.1277L217.119 61.1753H216.057L228.411 35.4922L240.401 61.1753Z" fill="white"/>
</g>
</g>
</svg>
