<svg width="285" height="94" viewBox="0 0 285 94" fill="none" xmlns="http://www.w3.org/2000/svg">
<path d="M127.94 32.0947C124.357 32.4186 120.845 34.0962 118.421 36.653C116.138 39.0709 114.686 42.183 114.417 45.2605L114.323 46.2091H112.298C110.869 46.2091 110.26 46.1744 110.26 46.0818C110.26 46.0124 110.366 45.5034 110.483 44.9481C110.834 43.3978 111.127 42.0789 112.075 37.6479C112.555 35.392 112.977 33.4483 113 33.3327C113.047 33.1475 112.942 33.1359 111.63 33.159L110.214 33.1938L110.061 33.8301C109.933 34.4085 109.757 35.1837 108.785 39.7304C108.621 40.4593 108.399 41.5236 108.27 42.1021C108.141 42.669 107.907 43.768 107.743 44.5316C107.579 45.2951 107.427 45.9893 107.392 46.0587C107.357 46.1744 106.467 46.2091 103.528 46.2091H99.7227V46.7644V47.3081H103.411C105.823 47.3081 107.099 47.3544 107.099 47.4239C107.099 47.4933 106.935 48.2684 106.748 49.1593C106.549 50.05 106.315 51.1376 106.221 51.5888C105.881 53.2084 104.734 58.5187 104.172 61.0408L104.078 61.4804H105.518H106.959L107.087 60.8094C107.146 60.4507 107.392 59.2939 107.626 58.2411C107.848 57.1883 108.247 55.3719 108.504 54.1918C108.762 53.0118 109.101 51.4268 109.265 50.6632C109.441 49.8997 109.651 48.8585 109.757 48.3494C109.862 47.8404 109.991 47.4007 110.038 47.3661C110.085 47.3313 111.057 47.3081 112.204 47.3081H114.3L114.393 47.8866C114.78 50.3856 115.225 51.8549 116.056 53.4977C119.358 59.9765 126.887 62.996 134.087 60.7169C135.832 60.1615 138.01 58.9005 139.532 57.57L139.942 57.2114L139.298 56.5635L138.654 55.9157L138.127 56.4709C136.534 58.16 134.602 59.3285 132.331 59.988C131.5 60.2309 131.172 60.2656 129.287 60.2541C127.331 60.2541 127.097 60.2309 126.137 59.9417C120.985 58.3683 117.414 53.8447 116.817 48.0948C116.536 45.5034 117.075 42.6805 118.281 40.2741C121.173 34.5242 127.542 31.7823 133.221 33.8301C134.989 34.4664 136.757 35.6002 137.998 36.8959L138.63 37.5554L139.227 36.9885C139.555 36.6877 139.848 36.41 139.883 36.3985C139.965 36.3406 139.181 35.6696 138.127 34.8829C135.972 33.2864 133.338 32.3261 130.458 32.0947C129.755 32.0253 129.123 31.9906 129.053 32.0022C128.994 32.0022 128.491 32.0484 127.94 32.0947Z" fill="white"/>
<path d="M142.928 47.3069V61.4792H144.333H145.738L145.761 54.3989L145.796 47.3069H154.051C158.594 47.3069 162.422 47.3186 162.575 47.3417L162.832 47.388V54.4336V61.4792H164.296H165.759V47.3069V33.1348H164.296H162.832V39.6714V46.2079H154.285H145.738V39.6714V33.1348H144.333H142.928V47.3069Z" fill="white"/>
<path d="M170.912 47.3069V61.4792H178.71H186.496L186.461 60.9238L186.426 60.3801L180.068 60.3455L173.722 60.3223L173.746 53.8204L173.781 47.3069H178.406H183.03L183.066 46.7517L183.101 46.2079H178.406H173.722L173.746 40.2151L173.781 34.2339L180.138 34.1991L186.485 34.176V33.6554V33.1348H178.698H170.912V47.3069Z" fill="white"/>
</svg>
