<svg width="285" height="94" viewBox="0 0 285 94" fill="none" xmlns="http://www.w3.org/2000/svg">
<g clip-path="url(#clip0_2001_65)">
<path d="M18.7387 35.2832V59.4157H16.245L16.3162 39.2463H16.245L10.1888 59.4157H8.1225L2.35125 39.2463H2.28L2.35125 59.4157H0V35.2832H3.49125L9.2625 55.5233L15.2475 35.2832H18.7387Z" fill="white"/>
<path d="M32.4883 57.7877C32.4883 56.6554 33.1295 55.877 34.0558 55.877C34.982 55.877 35.6233 56.6554 35.6233 57.7877C35.6233 58.9908 35.0533 59.7693 34.0558 59.7693C33.1295 59.7693 32.4883 58.9908 32.4883 57.7877Z" fill="white"/>
<path d="M61.0622 59.4865L57.0009 49.2956H56.8584H52.2984V59.4157H49.8047V35.2832H56.7872C60.6347 35.2832 63.2709 37.9725 63.2709 42.0063C63.2709 45.3325 61.7747 47.8095 59.4234 48.8002L63.8409 59.4157H61.0622V59.4865ZM52.2984 46.8187H57.0009C59.2097 46.8187 60.7059 45.0494 60.7059 42.2894C60.7059 39.6709 59.2097 37.9725 56.9297 37.9725H52.2984V46.8187Z" fill="white"/>
<path d="M106.021 56.7972V59.4157H93.623V35.2832H105.736V37.9017H96.1168V45.6156H104.881V48.3048H96.1168V56.7972H106.021Z" fill="white"/>
<path d="M147.202 53.471H139.151L137.512 59.4157H134.947L141.787 35.2832H144.637L151.477 59.4157H148.77L147.202 53.471ZM146.419 50.8525L143.141 38.6094H143.07L139.792 50.8525H146.419Z" fill="white"/>
<path d="M179.906 51.4908H182.4C182.542 54.817 184.395 57.0816 187.103 57.0816C189.881 57.0816 191.734 55.3832 191.734 52.7647C191.734 49.4385 189.311 48.8724 186.746 48.3062C183.754 47.6693 180.405 46.7493 180.405 42.0077C180.405 37.8323 183.113 35.0723 187.103 35.0723C190.879 35.0723 193.586 38.2569 193.8 42.9985H191.306C191.164 39.8846 189.525 37.7615 187.031 37.7615C184.609 37.7615 182.97 39.3892 182.97 41.7246C182.97 44.4846 185.179 45.1216 187.672 45.617C190.807 46.2539 194.299 47.2447 194.299 52.4816C194.299 56.8693 191.449 59.8417 187.103 59.8417C183.041 59.7709 180.12 56.4447 179.906 51.4908Z" fill="white"/>
<path d="M223.654 47.3847C223.654 39.9539 227.146 35 232.347 35C237.548 35 241.039 39.9539 241.039 47.3847C241.039 54.8155 237.548 59.7694 232.347 59.7694C227.146 59.7694 223.654 54.8155 223.654 47.3847ZM238.474 47.3847C238.474 41.5816 236.052 37.76 232.347 37.76C228.713 37.76 226.219 41.5816 226.219 47.3847C226.219 53.1878 228.642 57.0094 232.347 57.0094C236.052 57.0094 238.474 53.1878 238.474 47.3847Z" fill="white"/>
<path d="M284.999 35.2832V59.4157H282.648L273.528 40.4494H273.457L273.528 59.4157H271.105V35.2832H273.528L282.648 54.2495H282.719L282.648 35.2832H284.999Z" fill="white"/>
</g>
<defs>
<clipPath id="clip0_2001_65">
<rect width="285" height="94" fill="white"/>
</clipPath>
</defs>
</svg>
