<svg width="285" height="94" viewBox="0 0 285 94" fill="none" xmlns="http://www.w3.org/2000/svg">
<g clip-path="url(#clip0_2001_71)">
<path d="M287.187 94.3459H31.373V-19.9883H287.187V94.3459Z" fill="#231F20"/>
<path d="M201.722 41.8454C201.722 40.8291 201.338 40.0034 200.634 39.3047C199.995 38.6695 198.908 38.3519 197.437 38.3519H196.094V45.339H197.437C198.908 45.339 199.995 45.0214 200.634 44.3862C201.402 43.6875 201.722 42.8618 201.722 41.8454ZM211.634 60.7106H202.873L196.158 50.0394V60.7106H189.123V32.8893H200.059C203.257 32.8893 205.623 33.8421 207.158 35.8111C208.437 37.3991 209.012 39.3047 209.012 41.4008C209.012 43.8781 208.309 45.8471 206.838 47.3081C205.943 48.2609 204.664 48.8961 203.065 49.2772L211.634 60.7106ZM175.053 32.8893L163.541 60.7106H158.041L146.658 32.8893H154.332L160.855 49.7853L167.443 32.8893H175.053ZM134.634 60.7106H119.158V32.8893H126.193V54.7398H134.634V60.7106ZM103.425 45.2755C103.425 48.2609 103.105 50.7381 102.466 52.6437C101.443 55.5656 99.7798 57.7887 97.4775 59.3132C95.2391 60.8376 92.617 61.5363 89.5472 61.5363C84.5589 61.5363 80.7856 59.8213 78.0996 56.3278C76.117 53.7235 75.0938 50.5476 75.0938 46.927C75.0938 42.8618 76.2449 39.4952 78.6112 36.7004C81.2972 33.588 85.0065 32 89.8031 32C93.0007 32 95.6868 32.8257 97.9251 34.5408C99.524 35.7476 100.867 37.4626 102.018 39.8128L95.367 42.6077C94.7914 41.3373 94.1519 40.3845 93.3844 39.7493C92.2972 38.8601 91.0182 38.4154 89.5472 38.4154C86.4775 38.4154 84.367 40.0034 83.1519 43.2429C82.7042 44.4497 82.4484 45.6566 82.4484 46.927C82.4484 49.5312 83.2798 51.7544 84.8786 53.5329C86.0938 54.8668 87.6926 55.502 89.7391 55.502C91.5298 55.502 92.9368 54.9939 93.96 53.9141C94.6635 53.2154 95.1112 52.1991 95.3031 50.8016H89.4193V45.2755H103.425Z" fill="white"/>
<path fill-rule="evenodd" clip-rule="evenodd" d="M121.973 49.2773C121.845 49.2773 121.781 49.3409 121.653 49.4044C121.589 49.4679 121.525 49.5949 121.525 49.722C121.525 49.9761 121.653 50.1666 121.909 50.1666C122.292 50.2301 122.42 50.2301 122.868 50.2301H123.443C123.443 50.2301 123.763 50.2301 123.891 50.2301C124.147 50.4842 124.275 50.7383 124.275 51.0559C124.275 51.2464 124.147 51.5005 123.571 51.5005H122.804L122.292 51.437L121.909 51.3735C121.781 51.3735 121.653 51.437 121.589 51.5005C121.525 51.6275 121.461 51.6911 121.461 51.8181C121.461 52.0722 121.589 52.1992 121.845 52.2627C122.292 52.3263 122.548 52.3263 122.804 52.3263C123.252 52.3263 123.571 52.3898 124.147 52.2627C124.467 52.1992 124.659 52.0722 124.85 51.8181C124.978 51.6275 125.106 51.437 125.106 50.9924C125.106 50.6748 124.978 50.3572 124.787 50.1031C124.978 50.0396 125.106 49.9761 125.106 49.722C125.106 49.5949 125.042 49.4679 124.978 49.4044C124.914 49.2773 124.787 49.2773 124.659 49.2773H124.595H124.467H124.339H123.635H122.996H121.973Z" fill="#221F1F"/>
<path fill-rule="evenodd" clip-rule="evenodd" d="M121.589 36.0016C121.525 36.0651 121.461 36.1921 121.461 36.3192C121.461 36.3827 121.461 36.4462 121.461 36.5097C121.525 36.7638 121.589 37.0179 121.909 37.3355C121.589 37.399 121.525 37.5895 121.525 37.7801C121.525 37.9707 121.589 38.2247 121.973 38.2247H124.787C125.042 38.2247 125.234 38.0342 125.234 37.7801C125.234 37.4625 125.042 37.3355 124.787 37.3355C124.787 37.3355 123.38 37.3355 123.188 37.3355C122.868 37.3355 122.612 37.0179 122.484 36.7638C122.42 36.6368 122.42 36.5732 122.42 36.4462V36.3192C122.42 36.1921 122.42 36.0651 122.292 36.0016C122.228 35.8745 122.037 35.811 121.909 35.8745C121.781 35.8745 121.653 35.8745 121.589 36.0016Z" fill="#221F1F"/>
<path fill-rule="evenodd" clip-rule="evenodd" d="M119.861 48.514C119.861 48.8316 120.053 48.9586 120.309 48.9586H121.268H121.396H122.547H123.635H124.786C125.042 48.9586 125.233 48.7681 125.233 48.4505C125.233 48.1964 125.106 48.0059 124.786 48.0059H124.082H122.547H121.588H120.373C120.053 48.0059 119.861 48.1964 119.861 48.514Z" fill="#221F1F"/>
<path fill-rule="evenodd" clip-rule="evenodd" d="M119.861 47.1175C119.861 47.3716 120.053 47.5622 120.309 47.5622H121.268H122.547H123.635H124.786C125.042 47.5622 125.233 47.3716 125.233 47.054C125.233 46.7999 125.106 46.6094 124.786 46.6094H124.082H122.547H121.588H121.396H120.309C120.053 46.6729 119.861 46.8635 119.861 47.1175Z" fill="#221F1F"/>
<path fill-rule="evenodd" clip-rule="evenodd" d="M122.229 52.7716C122.165 52.8986 122.101 53.0256 122.101 53.1527C122.101 54.4231 121.973 55.5029 122.229 56.011C122.356 56.2016 122.484 56.2651 122.612 56.2016C122.74 56.2016 122.868 56.1381 122.932 56.0746C123.06 55.9475 123.124 55.8205 123.124 55.6934L123.06 55.5029C122.932 55.1218 122.996 54.296 122.932 53.7879C123.188 53.7244 123.508 53.6608 123.955 54.2325C124.211 54.4866 124.275 54.9312 124.211 55.3123C124.147 56.3286 123.444 56.6462 123.06 56.7097C122.42 56.9003 121.909 56.8368 121.269 56.3921C120.949 56.1381 120.63 55.6299 120.694 54.9947C120.758 54.3595 121.077 54.169 121.269 53.8514C121.333 53.7244 121.397 53.6608 121.397 53.5338C121.397 53.4068 121.269 53.2797 121.205 53.2162C121.141 53.1527 121.013 53.0892 120.886 53.0892C120.63 53.0892 120.31 53.4068 120.118 53.7244C119.926 54.0419 119.798 54.4866 119.734 54.9947C119.734 55.3758 119.862 56.0746 120.246 56.6462C120.566 57.0909 120.886 57.3449 121.525 57.599C122.037 57.7896 122.612 57.7896 123.188 57.7261C123.891 57.599 124.403 57.1544 124.723 56.7733C124.979 56.3922 125.17 55.8205 125.17 55.2488C125.17 54.6136 124.979 53.9784 124.595 53.5338C124.083 52.9621 123.572 52.8351 122.932 52.8351C122.868 52.7081 122.74 52.6445 122.548 52.6445C122.42 52.6445 122.356 52.6445 122.229 52.7716Z" fill="#221F1F"/>
<path fill-rule="evenodd" clip-rule="evenodd" d="M123.954 38.6056C123.89 38.6691 123.826 38.7961 123.826 38.9231C123.826 39.0502 123.954 39.1772 124.082 39.3043C124.146 39.3678 124.273 39.4948 124.337 39.7489C124.529 40.4476 124.209 40.7652 124.209 40.7652C124.146 40.8922 124.018 40.9558 123.89 41.0193C123.826 40.7652 123.634 40.3206 123.442 39.8759C123.25 39.4313 123.122 38.9867 123.058 38.8596C122.93 38.6056 122.739 38.542 122.547 38.542C122.163 38.542 121.843 38.8596 121.715 39.1772C121.587 39.4313 121.523 39.7489 121.523 40.13C121.523 40.6382 121.843 41.1463 122.163 41.4639C122.483 41.718 123.058 41.9085 123.57 41.9085C124.082 41.9085 124.529 41.718 124.785 41.3369C125.041 40.9558 125.169 40.6382 125.169 40.1935C125.169 39.8124 125.105 39.4948 124.913 39.1772C124.721 38.7326 124.465 38.4785 124.209 38.4785C124.146 38.4785 124.018 38.542 123.954 38.6056ZM122.355 40.2571C122.355 40.13 122.291 40.003 122.355 39.8759C122.355 39.7489 122.483 39.5583 122.547 39.4313C122.611 39.6219 122.739 39.9395 122.866 40.1935C122.994 40.4476 123.058 40.7017 123.186 40.9558C122.93 40.8922 122.739 40.7652 122.611 40.7017C122.483 40.5746 122.355 40.3841 122.355 40.2571Z" fill="#221F1F"/>
<path fill-rule="evenodd" clip-rule="evenodd" d="M121.651 41.846C121.587 41.973 121.523 42.0365 121.523 42.1636C121.523 42.3541 121.651 42.4812 121.843 42.5447L122.547 42.7987C122.994 42.9893 123.442 43.2434 123.698 43.3704C123.25 43.561 121.843 44.0691 121.843 44.0691C121.651 44.1326 121.587 44.2597 121.587 44.4502C121.587 44.5773 121.651 44.7043 121.715 44.7678C121.779 44.8314 121.907 44.9584 122.035 44.8949C122.163 44.8949 122.355 44.7678 122.355 44.7678L123.634 44.2597L124.913 43.7515C125.233 43.6245 125.233 43.4339 125.233 43.2434C125.233 42.9893 125.105 42.8623 124.849 42.7987L123.314 42.0365C122.483 41.6554 121.971 41.4648 121.971 41.4648C121.843 41.7189 121.715 41.7824 121.651 41.846Z" fill="#221F1F"/>
<path fill-rule="evenodd" clip-rule="evenodd" d="M120.31 45.34C120.182 45.467 120.182 45.5306 120.182 45.7211C120.182 45.8482 120.246 45.9752 120.31 46.1022C120.373 46.1658 120.501 46.2293 120.629 46.2293C120.757 46.2293 120.885 46.1658 120.949 46.0387C121.077 45.9117 121.077 45.7846 121.077 45.6576C121.077 45.5306 121.013 45.4035 120.949 45.2765C120.885 45.1494 120.757 45.0859 120.629 45.0859C120.501 45.213 120.437 45.2765 120.31 45.34Z" fill="#221F1F"/>
<path fill-rule="evenodd" clip-rule="evenodd" d="M121.971 45.2764C121.779 45.2764 121.715 45.3399 121.651 45.4034C121.587 45.467 121.523 45.594 121.523 45.721C121.523 45.8481 121.587 45.9751 121.651 46.0386C121.715 46.1022 121.843 46.1657 121.971 46.1657C121.971 46.1657 122.291 46.1657 122.866 46.1657C123.442 46.1657 124.785 46.1022 124.785 46.1022C124.913 46.1022 125.041 46.0386 125.105 45.9751C125.169 45.9116 125.233 45.7846 125.233 45.6575C125.233 45.5305 125.169 45.4034 125.105 45.3399C124.977 45.2764 124.913 45.2129 124.785 45.2129C124.785 45.2129 123.442 45.2764 122.866 45.2764C122.291 45.3399 121.971 45.2764 121.971 45.2764Z" fill="#221F1F"/>
</g>
<defs>
<clipPath id="clip0_2001_71">
<rect width="160" height="94" fill="white" transform="translate(63)"/>
</clipPath>
</defs>
</svg>
