<svg width="285" height="94" viewBox="0 0 285 94" fill="none" xmlns="http://www.w3.org/2000/svg">
<g clip-path="url(#clip0_2001_82)">
<path fill-rule="evenodd" clip-rule="evenodd" d="M148.168 9.71639C147.632 10.7072 147.179 11.7063 146.819 12.7054C144.633 18.8167 142.446 24.9279 140.26 31.0308C139.028 29.2158 137.671 27.4174 136.205 25.7771C137.906 22.5217 139.523 19.1747 141.165 15.8942C142.153 13.921 144.264 10.8154 147.154 9.98282C147.489 9.88291 147.824 9.79965 148.168 9.71639ZM158.706 34.1281C157.885 34.1114 157.181 34.7442 157.332 35.71C155.824 35.3936 154.45 34.6693 153.244 33.5036C151.812 32.1132 150.932 30.3897 151.15 27.8586C151.485 23.9205 154.668 20.2321 160.289 20.4985C167.443 20.8315 169.378 28.583 168.649 33.7617C167.946 38.7656 163.196 44.3357 158.145 44.7104C151.778 45.1766 145.906 40.1644 142.815 35.0439C145.554 27.051 148.293 19.0498 151.033 11.0569C151.25 10.4241 151.493 9.78299 151.778 9.15022C154.057 8.92542 156.536 8.85881 159.343 8.70895C159.845 8.68397 160.164 8.44252 160.122 8.10115C160.08 7.78477 159.845 7.45173 159.292 7.46838C157.223 7.52666 154.861 7.53499 152.482 7.70151C153.981 4.86236 156.193 2.27298 159.284 1.10735C159.267 1.19894 159.259 1.29052 159.259 1.39043C159.259 2.20638 159.921 2.86413 160.733 2.86413C161.546 2.86413 162.283 2.20638 162.208 1.39043C162.107 0.30806 161.303 0 160.465 0C160.105 0 159.745 0.0582817 159.418 0.133215C155.271 1.08237 151.611 4.3295 149.148 8.07617C147.573 8.33428 146.057 8.71727 144.7 9.30841C140.201 11.24 137.78 14.7952 135.678 18.8999C134.957 20.307 134.237 21.7141 133.516 23.1212C131.925 21.7391 130.208 20.5984 128.373 19.8407C122.987 17.626 117.449 19.8491 114.677 24.1952C112.448 27.6838 112.716 32.338 116.151 36.5176C116.62 37.0921 117.676 36.8174 116.88 35.7849C114.693 32.9624 113.345 29.7403 115.297 25.3192C116.754 22.0055 122.342 18.1506 128.867 21.2478C130.333 21.9472 131.69 22.9796 132.989 24.1536C132.436 25.236 131.875 26.3267 131.322 27.409C127.996 33.895 124.838 33.3704 123.255 33.0957C119.577 32.4546 119.527 26.8429 123.322 25.8521C123.741 25.7438 124.788 25.7022 125.424 25.8937C126.228 26.1352 126.48 25.1694 125.717 24.9446C124.947 24.7114 123.791 24.7447 123.129 24.8863C118.404 25.9353 118.161 32.8126 123.012 34.2779C128.339 35.8932 133.282 31.0475 135.644 26.8512C137.135 28.5497 138.517 30.423 139.816 32.3297C138.819 35.1022 137.831 37.8831 136.834 40.6556C136.122 42.6289 134.915 44.4273 133.223 46.0259C130.526 48.5736 127.301 48.9399 127.594 49.8808C127.887 50.8216 131.774 49.0482 134.145 47.2748C138.191 44.2524 140.863 40.4475 142.396 36.3095C146.266 42.4957 151.091 46.8668 158.815 46.642C165.139 46.4505 171.858 41.6964 172.754 34.0448C173.709 25.8771 167.008 18.8416 159.845 18.8666C154.501 18.8833 150.044 22.4051 149.743 27.6255C149.567 30.6811 150.228 32.6128 151.912 34.228C153.738 35.9764 155.866 36.9839 158.329 37.1004C159.276 37.1421 160.138 36.6675 160.197 35.6101C160.222 34.7858 159.527 34.1447 158.706 34.1281ZM134.304 63.3022C133.793 63.3022 133.274 63.3022 132.763 63.3022C131.799 64.7842 130.827 66.2663 129.864 67.7483C128.892 66.2663 127.929 64.7842 126.957 63.3022C126.446 63.3022 125.927 63.3022 125.416 63.3022C126.639 65.1756 127.862 67.0489 129.093 68.9222C127.795 70.9121 126.488 72.902 125.19 74.8919C125.701 74.8919 126.22 74.8919 126.731 74.8919C127.778 73.2934 128.817 71.6948 129.864 70.1045C130.911 71.7031 131.95 73.3017 132.997 74.8919C133.508 74.8919 134.027 74.8919 134.538 74.8919C133.24 72.902 131.933 70.9121 130.635 68.9222C131.858 67.0489 133.081 65.1756 134.304 63.3022ZM190.698 74.8919C190.698 74.8919 190.698 74.8836 190.698 74.8753C189.416 73.1934 188.143 71.5199 186.861 69.8381C188.327 69.53 189.441 68.2229 189.441 66.6659C189.441 66.6243 189.441 66.5826 189.441 66.5327C189.441 64.7509 187.983 63.2856 186.191 63.2856C184.675 63.2856 183.158 63.2856 181.634 63.2856C181.634 67.1488 181.634 71.012 181.634 74.8753C182.036 74.8753 182.438 74.8753 182.848 74.8753C182.848 73.2184 182.848 71.5616 182.848 69.8964C183.745 69.8964 184.641 69.8964 185.537 69.8964C186.802 71.5532 188.067 73.2184 189.332 74.8753C189.785 74.8919 190.245 74.8919 190.698 74.8919ZM172.117 63.3022C174.614 63.3022 177.102 63.3022 179.598 63.3022C179.598 63.7185 179.598 64.1431 179.598 64.5594C177.512 64.5594 175.418 64.5594 173.332 64.5594C173.332 65.825 173.332 67.0822 173.332 68.3477C174.672 68.3477 176.021 68.3477 177.361 68.3477C177.361 68.764 177.361 69.1887 177.361 69.605C176.021 69.605 174.681 69.605 173.332 69.605C173.332 70.9454 173.332 72.2942 173.332 73.6347C175.418 73.6347 177.512 73.6347 179.598 73.6347C179.598 74.051 179.598 74.4756 179.598 74.8919C177.102 74.8919 174.614 74.8919 172.117 74.8919C172.117 71.0287 172.117 67.1655 172.117 63.3022ZM116.268 63.3022C118.765 63.3022 121.253 63.3022 123.749 63.3022C123.749 63.7185 123.749 64.1431 123.749 64.5594C121.663 64.5594 119.569 64.5594 117.483 64.5594C117.483 65.825 117.483 67.0822 117.483 68.3477C118.823 68.3477 120.172 68.3477 121.512 68.3477C121.512 68.764 121.512 69.1887 121.512 69.605C120.172 69.605 118.823 69.605 117.483 69.605C117.483 70.9454 117.483 72.2942 117.483 73.6347C119.569 73.6347 121.663 73.6347 123.749 73.6347C123.749 74.051 123.749 74.4756 123.749 74.8919C121.253 74.8919 118.765 74.8919 116.268 74.8919C116.268 71.0287 116.268 67.1655 116.268 63.3022ZM182.857 64.5095C183.971 64.5095 185.085 64.5095 186.199 64.5095C187.322 64.5095 188.235 65.4253 188.235 66.541C188.235 66.5826 188.235 66.6243 188.235 66.6742C188.235 67.7899 187.322 68.7058 186.199 68.7058C185.085 68.7058 183.971 68.7058 182.857 68.7058C182.857 67.307 182.857 65.9082 182.857 64.5095ZM161.663 73.6847C161.663 70.6291 161.663 67.5734 161.663 64.5095C162.593 64.5095 163.531 64.5095 164.461 64.5095C166.815 64.5095 168.733 66.4328 168.733 68.7807C168.733 68.9888 168.733 69.2053 168.733 69.4135C168.733 71.7614 166.806 73.6847 164.461 73.6847C163.531 73.6847 162.593 73.6847 161.663 73.6847ZM160.448 74.8919C161.789 74.8919 163.121 74.8919 164.461 74.8919C167.477 74.8919 169.948 72.4275 169.948 69.4135C169.948 69.2053 169.948 68.9888 169.948 68.7807C169.948 65.7667 167.477 63.3022 164.461 63.3022C163.121 63.3022 161.789 63.3022 160.448 63.3022C160.448 67.1655 160.448 71.0287 160.448 74.8919ZM148.126 62.8276C150.79 65.8999 153.462 68.9722 156.126 72.0445C156.126 69.1304 156.126 66.2163 156.126 63.3022C156.528 63.3022 156.938 63.3022 157.341 63.3022C157.341 67.3236 157.341 71.3451 157.341 75.3665C154.677 72.2942 152.004 69.222 149.341 66.158C149.341 69.0721 149.341 71.9862 149.341 74.9003C148.938 74.9003 148.528 74.9003 148.126 74.9003C148.126 70.8705 148.126 66.8491 148.126 62.8276ZM107.724 63.3022C108.126 63.3022 108.536 63.3022 108.938 63.3022C108.938 66.7492 108.938 70.1961 108.938 73.6431C110.815 73.6431 112.7 73.6431 114.576 73.6431C114.576 74.0593 114.576 74.484 114.576 74.9003C112.289 74.9003 110.011 74.9003 107.724 74.9003C107.724 71.0287 107.724 67.1655 107.724 63.3022ZM142.982 70.0296C142.379 68.6558 141.776 67.2903 141.165 65.9249C140.561 67.2903 139.958 68.6641 139.347 70.0296C140.561 70.0296 141.768 70.0296 142.982 70.0296ZM146.492 74.8919C146.04 74.8919 145.579 74.8919 145.127 74.8919C144.582 73.6597 144.038 72.4358 143.502 71.2035C141.944 71.2035 140.394 71.2035 138.836 71.2035C138.291 72.4358 137.747 73.6597 137.211 74.8919C136.758 74.8919 136.298 74.8919 135.845 74.8919C137.621 70.8705 139.397 66.8491 141.173 62.8276C142.941 66.8491 144.716 70.8705 146.492 74.8919ZM102.488 70.0296C101.885 68.6558 101.282 67.2903 100.67 65.9249C100.067 67.2903 99.4641 68.6641 98.8526 70.0296C100.076 70.0296 101.282 70.0296 102.488 70.0296ZM106.006 74.8919C105.554 74.8919 105.093 74.8919 104.641 74.8919C104.097 73.6597 103.552 72.4358 103.016 71.2035C101.458 71.2035 99.9081 71.2035 98.35 71.2035C97.8054 72.4358 97.2609 73.6597 96.7248 74.8919C96.2725 74.8919 95.8117 74.8919 95.3594 74.8919C97.1353 70.8705 98.9112 66.8491 100.687 62.8276C102.455 66.8491 104.231 70.8705 106.006 74.8919ZM172.897 81.6693C176.247 81.6693 178.97 84.3835 178.97 87.7306C178.97 91.0776 176.247 93.7919 172.897 93.7919C169.546 93.7919 166.823 91.0776 166.823 87.7306C166.823 84.3835 169.546 81.6693 172.897 81.6693ZM172.897 82.8765C175.577 82.8765 177.755 85.0496 177.755 87.7306C177.755 90.4115 175.577 92.5846 172.897 92.5846C170.216 92.5846 168.038 90.4115 168.038 87.7306C168.038 85.0496 170.216 82.8765 172.897 82.8765ZM111.795 81.6693C115.146 81.6693 117.868 84.3835 117.868 87.7306C117.868 91.0776 115.146 93.7919 111.795 93.7919C108.444 93.7919 105.722 91.0776 105.722 87.7306C105.722 84.3835 108.436 81.6693 111.795 81.6693ZM111.795 82.8765C114.476 82.8765 116.654 85.0496 116.654 87.7306C116.654 90.4115 114.476 92.5846 111.795 92.5846C109.114 92.5846 106.936 90.4115 106.936 87.7306C106.936 85.0496 109.106 82.8765 111.795 82.8765ZM97.328 87.0645C97.328 85.7573 97.328 84.4501 97.328 83.143C98.6515 83.143 99.9667 83.143 101.29 83.143C102.296 83.143 103.125 83.9672 103.125 84.9747C103.125 85.0663 103.125 85.1495 103.125 85.2411C103.125 86.2485 102.304 87.0728 101.29 87.0728C99.9667 87.0645 98.6431 87.0645 97.328 87.0645ZM97.328 92.3182C97.328 90.9694 97.328 89.6289 97.328 88.2801C98.6515 88.2801 99.9667 88.2801 101.29 88.2801C102.354 88.2801 103.217 89.146 103.217 90.2034C103.217 90.27 103.217 90.3283 103.217 90.3949C103.217 91.4523 102.346 92.3182 101.29 92.3182C99.9667 92.3182 98.6431 92.3182 97.328 92.3182ZM96.1133 93.5254C97.839 93.5254 99.5646 93.5254 101.282 93.5254C103.008 93.5254 104.423 92.1183 104.423 90.3865C104.423 90.3199 104.423 90.2617 104.423 90.195C104.423 89.1543 103.904 88.2218 103.116 87.6556C103.854 87.0978 104.331 86.2152 104.331 85.2328C104.331 85.1412 104.331 85.0579 104.331 84.9663C104.331 83.2928 102.957 81.9274 101.29 81.9274C99.5646 81.9274 97.839 81.9274 96.1217 81.9274C96.1133 85.7989 96.1133 89.6622 96.1133 93.5254ZM134.245 92.3182C134.245 89.2625 134.245 86.2069 134.245 83.143C135.175 83.143 136.113 83.143 137.043 83.143C139.397 83.143 141.315 85.0663 141.315 87.4142C141.315 87.6307 141.315 87.8388 141.315 88.0469C141.315 90.3949 139.389 92.3182 137.043 92.3182C136.113 92.3182 135.183 92.3182 134.245 92.3182ZM133.039 93.5254C134.379 93.5254 135.711 93.5254 137.052 93.5254C140.067 93.5254 142.538 91.0609 142.538 88.0469C142.538 87.8305 142.538 87.6223 142.538 87.4142C142.538 84.4002 140.067 81.9357 137.052 81.9357C135.711 81.9357 134.379 81.9357 133.039 81.9357C133.039 85.7989 133.039 89.6622 133.039 93.5254ZM155.464 81.4611C158.128 84.5334 160.8 87.6057 163.464 90.6779C163.464 87.7639 163.464 84.8498 163.464 81.9357C163.866 81.9357 164.268 81.9357 164.679 81.9357C164.679 85.9571 164.679 89.9786 164.679 94C162.015 90.9277 159.343 87.8555 156.679 84.7915C156.679 87.7056 156.679 90.6197 156.679 93.5338C156.277 93.5338 155.866 93.5338 155.464 93.5338C155.464 89.504 155.464 85.4826 155.464 81.4611ZM130.626 87.6889C128.892 87.6889 127.158 87.6889 125.416 87.6889C125.416 88.0802 125.416 88.4716 125.416 88.8629C126.756 88.8629 128.105 88.8629 129.445 88.8629C129.445 89.3125 129.445 89.7621 129.445 90.2117C128.599 91.6354 127.041 92.5846 125.274 92.5846C122.593 92.5846 120.415 90.4115 120.415 87.7306C120.415 85.0496 122.593 82.8765 125.274 82.8765C126.84 82.8765 128.239 83.6175 129.127 84.7748C129.445 84.5251 129.764 84.2836 130.09 84.0338C128.976 82.5934 127.234 81.6609 125.274 81.6609C121.923 81.6609 119.2 84.3752 119.2 87.7222C119.2 91.0693 121.923 93.7835 125.274 93.7835C127.586 93.7835 129.604 92.493 130.626 90.5864C130.626 89.6289 130.626 88.6547 130.626 87.6889ZM179.288 81.9357C179.741 81.9357 180.201 81.9357 180.654 81.9357C181.977 84.9247 183.292 87.9137 184.616 90.9027C185.939 87.9137 187.255 84.9247 188.578 81.9357C189.031 81.9357 189.491 81.9357 189.944 81.9357C188.168 85.9571 186.392 89.9786 184.616 94C182.84 89.9786 181.064 85.9571 179.288 81.9357ZM150.245 88.6631C149.642 87.2976 149.039 85.9238 148.427 84.5584C147.824 85.9238 147.221 87.2976 146.61 88.6631C147.824 88.6631 149.031 88.6631 150.245 88.6631ZM153.755 93.5254C153.303 93.5254 152.842 93.5254 152.39 93.5254C151.845 92.2932 151.301 91.0693 150.765 89.837C149.206 89.837 147.657 89.837 146.099 89.837C145.554 91.0693 145.01 92.2932 144.474 93.5254C144.021 93.5254 143.56 93.5254 143.108 93.5254C144.884 89.504 146.66 85.4826 148.436 81.4611C150.203 85.4826 151.979 89.504 153.755 93.5254Z" fill="white"/>
</g>
<defs>
<clipPath id="clip0_2001_82">
<rect width="96" height="94" fill="white" transform="translate(95)"/>
</clipPath>
</defs>
</svg>
