<svg width="285" height="94" viewBox="0 0 285 94" fill="none" xmlns="http://www.w3.org/2000/svg">
<path fill-rule="evenodd" clip-rule="evenodd" d="M154.168 38.0011C154.747 37.3752 155.423 36.7494 156.291 36.5087C158.028 35.9791 160.103 37.279 160.248 39.1083C160.344 40.9858 159.717 42.7671 159.09 44.5002C157.208 49.0254 154.506 53.2137 151.707 57.2095C151.321 57.739 150.984 58.3167 150.501 58.75C150.019 58.8944 149.584 58.6537 149.15 58.5574C149.005 60.3868 148.764 62.4087 149.633 64.1418C151.08 63.9011 152.093 62.7457 153.058 61.7829C153.396 61.3015 154.023 61.5903 154.458 61.6866C154.313 59.6647 154.988 57.6427 156.05 55.9096C156.774 54.7543 157.787 53.7433 159.09 53.31C160.682 52.7805 162.467 53.1175 163.866 54.0321C164.783 54.658 165.555 55.6689 165.603 56.8243C165.652 57.1132 165.555 57.5946 165.169 57.4983C164.445 57.402 163.77 57.0169 163.287 56.4873C162.95 56.1022 163.046 55.5245 162.95 55.0912C161.84 54.995 160.73 55.332 159.91 56.0541C157.98 57.5946 157.015 60.0498 156.967 62.4569C156.918 63.0346 157.015 63.6123 157.208 64.1418C158.462 63.9492 159.427 63.0827 160.151 62.0717C161.068 60.8201 161.502 59.3277 161.888 57.8353C161.936 57.3539 162.564 57.4502 162.901 57.5946C163.529 57.8834 164.252 58.3167 164.445 59.0388C164.349 60.8201 164.252 62.6976 165.121 64.2862C165.652 64.4307 166.134 63.9492 166.52 63.6604C168.498 61.831 169.705 59.424 170.766 57.0169C170.042 56.0541 169.27 54.8987 169.463 53.647C169.705 52.3953 170.621 51.1437 171.924 50.9992C173.372 50.9511 174.578 52.2509 174.674 53.647C174.771 55.1875 174.144 56.6318 173.565 58.0279C174.771 59.5202 175.881 61.1571 176.605 62.9383C177.184 64.3344 177.618 66.0193 176.942 67.4636C176.556 68.4264 175.543 69.0522 174.53 68.9078C172.841 68.7634 171.394 67.8487 170.091 66.8377C169.705 66.5007 169.174 66.0675 169.367 65.4898C169.705 65.2491 170.139 65.3453 170.525 65.5379C171.345 65.8749 171.828 66.8377 172.744 66.8859C173.71 67.0303 174.578 66.2119 174.674 65.2491C175.061 63.179 173.902 61.2533 172.841 59.6165C171.683 61.9755 170.477 64.7195 167.968 65.923C165.941 66.8377 163.673 65.4416 162.708 63.6604C161.888 64.9121 160.682 66.0193 159.138 66.0675C157.497 66.2119 155.953 65.2009 155.133 63.8048C154.216 64.7195 153.203 65.6342 151.9 65.8749C149.874 66.26 147.751 65.0565 146.931 63.2271C146.159 61.5422 146.255 59.6647 146.448 57.8834C147.075 53.1656 148.426 48.5922 150.356 44.2595C151.37 41.9487 152.576 39.8305 154.168 38.0011ZM214.625 53.2619C216.266 52.8767 218.244 53.4544 219.016 54.995C219.402 56.1985 218.63 57.3539 218.389 58.5574C218.003 60.3386 217.617 62.2162 217.955 64.0455C218.727 63.6604 219.354 63.0827 220.174 62.6976C219.981 60.5312 221.043 58.4611 222.152 56.6799C223.117 55.1875 224.372 53.7433 226.109 53.2137C227.412 52.7805 229.004 53.4544 229.68 54.6098C230.066 55.1875 229.824 55.9096 229.631 56.4873C230.114 56.3911 230.548 56.5355 230.886 56.8725C230.355 58.8463 229.776 60.9163 230.162 62.9383C230.403 64.0455 231.127 65.3453 232.381 65.4416C233.781 65.4416 234.939 64.5269 236 63.7085C236.772 62.9864 238.075 62.8901 238.992 63.4197C238.847 63.9974 238.22 64.2381 237.785 64.5751C235.855 65.8268 233.684 67.0303 231.368 66.9821C229.631 66.9821 228.087 65.7786 227.508 64.2381C226.64 65.0565 225.578 65.7786 224.372 65.8749C223.166 65.9712 222.008 65.3935 221.091 64.6232C219.74 65.3935 218.051 65.9712 216.555 65.2491C215.59 64.8639 214.963 63.9011 214.867 62.8901C214.577 60.9163 215.204 58.9426 215.687 57.065C215.88 56.2948 216.314 55.4764 216.073 54.658C214.143 55.7652 213.178 57.9316 212.358 59.9054C211.73 61.3496 211.393 62.9383 210.814 64.4307C209.945 64.9602 208.594 64.7676 208.015 63.9492C208.401 61.5903 209.559 59.4721 210.09 57.1613C210.235 56.6799 210.186 56.1985 209.849 55.8134C210.283 55.2838 211.055 55.4764 211.634 55.4282C212.406 54.4654 213.371 53.5507 214.625 53.2619ZM89.272 44.0188C89.8992 43.3448 90.7195 42.7671 91.6845 42.6227C92.746 42.4301 94.0005 42.6227 94.7242 43.5373C95.255 44.1632 95.0137 45.0297 94.6277 45.6556C93.7592 47.0516 92.2635 47.8219 91.202 49.0254C90.6712 49.555 90.3335 50.2771 89.8027 50.8067C89.0307 51.0474 87.921 50.8548 87.4867 50.1327C87.6315 49.5069 88.114 49.0736 88.4517 48.544C87.3902 48.0145 86.377 47.2924 85.6532 46.2814C85.1225 45.5593 85.0742 44.3557 85.9427 43.8262C87.0042 43.3448 88.2587 43.4892 89.272 44.0188ZM90.6712 46.5221C91.4432 45.8481 92.2635 45.126 92.5047 44.115C91.6362 44.6927 91.0572 45.6074 90.6712 46.5221ZM154.313 42.9596C152.19 46.6665 150.887 50.7104 149.777 54.8024C152.383 51.1437 154.747 47.2442 156.484 43.1041C157.063 41.708 157.497 40.2156 157.642 38.6751C156.195 39.8305 155.23 41.4191 154.313 42.9596ZM78.464 28.7098C80.201 26.9767 82.3722 25.3399 84.8812 25.0511C87.0042 24.7622 89.1272 25.7251 90.5265 27.2656C90.8642 27.7951 90.5747 28.5173 90.237 28.9987C89.8992 29.4319 89.3685 29.9615 88.7895 29.7689C88.307 29.4801 87.9692 29.0468 87.4867 28.758C86.377 27.9877 84.9777 27.6988 83.675 28.0358C81.8897 28.4691 80.4422 29.6726 79.1395 30.9243C75.183 34.92 72.7222 40.0712 69.1035 44.3557C71.0817 46.0407 72.3362 48.3996 73.3977 50.7104C75.0382 54.1766 76.2927 57.8353 78.0297 61.2533C78.5605 62.2643 79.0912 63.2753 79.9115 64.0455C81.166 64.7677 82.7582 64.5751 84.061 64.0455C84.3987 63.853 84.8812 64.0455 84.9295 64.4788C85.026 65.4898 84.4952 66.597 83.5302 66.934C81.745 67.608 79.4772 67.7043 77.9332 66.4526C76.7752 65.3453 76.148 63.9011 75.4725 62.505C74.1697 59.6165 73.0117 56.6799 71.709 53.7914C70.5027 51.1437 69.2965 48.3033 66.7875 46.6184C66.4497 46.8591 66.112 47.0998 65.726 47.3405C66.112 50.4215 66.4497 53.5989 65.919 56.6799C65.4365 59.3277 64.375 61.9273 62.638 63.9974C61.2387 65.7305 59.2122 67.0784 56.9445 67.1747C54.918 67.3191 52.9397 66.5007 51.3475 65.2491C48.742 63.179 46.8602 60.1942 46.233 56.9206C45.7505 54.5136 45.9917 51.9621 47.198 49.7957C48.2112 47.9182 49.8517 46.474 51.6852 45.4148C52.9397 44.7409 54.4837 44.2113 55.883 44.7409C57.1375 45.2704 57.813 46.6184 58.199 47.8219C58.7297 49.9883 58.4402 52.2991 57.9095 54.4173C57.7165 55.1394 57.5717 55.9096 57.0892 56.4873C56.7515 56.8243 56.269 57.1613 55.7865 57.0169C55.304 56.7281 55.3522 56.1022 55.497 55.6208C55.9795 53.8396 56.2207 52.0102 56.0277 50.1808C55.9312 49.218 55.6417 48.1108 54.7732 47.6293C53.9047 47.1961 52.8915 47.5812 52.0712 47.8701C50.479 48.5922 48.9832 49.8438 48.549 51.5769C47.97 53.8396 48.6455 56.1504 49.6105 58.1723C50.8167 60.5794 52.795 62.7457 55.4005 63.7085C56.9927 64.3344 58.8745 64.2862 60.322 63.2753C62.1555 61.9273 63.2652 59.761 63.6512 57.5946C64.2302 54.4654 63.796 51.2881 63.41 48.207C62.6862 48.2552 61.9142 48.3515 61.2387 48.1589C60.8527 48.0145 60.7562 47.5331 60.8045 47.1961C60.9975 45.9444 62.1072 45.126 62.9757 44.3557C62.638 40.7451 62.8792 37.0864 63.796 33.5721C63.024 33.7647 62.2037 33.8609 61.3835 33.7165C58.3437 33.3795 55.69 31.5983 52.6502 31.4057C52.602 32.3686 52.1677 33.4758 51.1545 33.7647C50.672 33.9091 50.1895 33.4277 50.2377 32.9462C50.2377 31.5502 50.672 30.0096 51.83 29.0949C52.7467 28.3728 54.0495 28.421 55.1592 28.6617C57.813 29.2875 60.2255 30.6836 62.9757 30.828C63.5547 30.828 64.2785 30.8762 64.6645 30.3948C64.954 29.7208 65.0987 28.9505 65.6777 28.4691C66.0155 28.1321 66.691 27.8914 67.0287 28.3728C67.4147 28.9505 67.077 29.6245 66.884 30.1541C65.3882 34.3423 64.9057 38.8676 65.2917 43.2966C65.919 43.2003 66.5462 43.2003 67.2217 43.2966C69.393 41.1784 70.8887 38.5788 72.5775 36.1236C74.3145 33.5721 76.2445 31.0206 78.464 28.7098ZM194.409 54.995C195.615 53.7914 197.448 53.1656 199.137 53.6952C199.861 53.8877 200.392 54.5136 200.536 55.2357C201.164 58.2686 198.655 61.1089 199.475 64.1418C200.295 63.6604 201.26 63.5641 202.177 63.853C202.467 63.9492 202.901 64.19 202.515 64.4788C201.55 65.1528 200.392 65.4416 199.282 65.5379C198.365 65.586 197.304 65.2972 196.773 64.4307C196.146 63.4197 196.435 62.168 196.676 61.1089C197.159 59.1351 198.124 57.065 197.545 55.0431C196.58 55.7171 195.76 56.5355 195.036 57.4502C194.891 57.6427 194.843 57.8834 194.795 58.076C194.36 60.1461 193.685 62.1199 193.106 64.1418C193.058 64.4307 192.816 64.7195 192.479 64.5751C191.707 64.2862 190.935 63.7085 190.693 62.8901C191.272 60.3868 192.093 57.9316 192.623 55.4282C192.527 55.0431 192.189 54.7061 192.334 54.2728C193.009 53.7914 193.926 54.3691 194.409 54.995ZM86.3287 53.7914C86.4735 53.31 87.0525 53.2619 87.4867 53.31C88.114 53.3582 88.9342 53.5026 89.272 54.1766C88.693 56.3429 87.921 58.5093 87.7762 60.7719C87.6797 62.1199 87.8727 63.6123 88.693 64.7195C90.43 64.19 91.781 62.9383 93.0837 61.7347C93.7592 61.3496 94.6277 61.6385 95.3032 61.9273C95.5445 62.0717 96.0752 62.4087 95.6892 62.6976C94.1935 64.1418 92.5047 65.4898 90.4782 66.0193C88.886 66.4526 87.0042 65.9712 85.9427 64.6714C85.0742 63.6604 84.833 62.2643 84.833 60.9645C84.8812 58.5093 85.605 56.1022 86.3287 53.7914ZM222.828 61.7347C222.538 62.4087 222.442 63.179 222.49 63.9011C224.227 63.7567 225.53 62.4087 226.398 60.9645C226.688 60.5794 226.784 60.0017 227.315 59.9535C227.508 59.0388 227.701 58.1723 227.943 57.3058C228.135 56.6799 228.956 56.6318 229.535 56.5355C228.907 56.1504 228.135 55.9578 227.605 55.3801C225.192 56.7281 223.793 59.2314 222.828 61.7347ZM204.783 53.0212C205.169 52.7805 205.603 53.0693 205.94 53.31C206.423 53.647 206.954 54.1284 207.05 54.7543C206.278 57.6909 205.361 60.6756 205.651 63.7567C205.699 64.5269 206.037 65.2491 206.085 66.0193C205.168 66.1156 204.3 65.4416 203.866 64.7195C202.901 61.9755 203.287 58.9426 203.914 56.1504C204.155 55.0912 204.348 54.0321 204.783 53.0212ZM91.1537 55.7171C91.1055 54.5136 91.7327 53.1175 92.8907 52.636C94.0487 52.2991 95.3997 52.7805 96.22 53.5989C96.8472 54.1766 97.0885 54.995 97.2815 55.7652C98.1017 55.2838 98.729 54.6098 99.2597 53.8396C99.694 53.0693 100.659 53.3582 101.334 53.5989C101.769 53.7914 102.444 54.1284 102.155 54.7061C101.093 57.3057 99.9835 60.0498 99.9835 62.9383C100.032 63.4197 100.08 64.0937 100.466 64.4307C101.576 64.2381 102.541 63.5641 103.457 62.8901C103.264 60.5312 104.085 58.1723 105.436 56.2466C106.835 54.2728 109.296 52.9249 111.756 53.2619C112.625 53.4544 113.59 53.7433 114.072 54.5136C113.493 55.1394 112.577 55.332 111.708 55.2838C111.226 55.1394 110.84 54.7543 110.309 54.7543C109.392 54.7061 108.717 55.4282 108.234 56.1022C107.221 57.5946 106.69 59.3758 106.449 61.1571C106.352 62.2162 106.256 63.4678 107.076 64.3344C109.537 62.6013 110.743 59.7128 111.756 56.9688C111.949 56.4392 112.577 56.2948 113.107 56.1985C113.638 56.1504 114.314 56.0541 114.7 56.5355C114.507 57.8353 114.024 59.0388 113.879 60.3868C113.735 61.6385 113.686 63.1308 114.603 64.1418C115.23 64.7677 116.195 64.4307 116.871 64.0455C117.788 63.6123 118.511 62.6976 119.573 62.6494C120.055 62.6013 120.634 62.6013 120.972 62.9864C121.117 63.4678 120.586 63.6604 120.248 63.9011C118.415 65.0084 116.34 66.1156 114.121 66.0193C112.673 65.9712 111.419 64.9121 111.081 63.516C109.971 64.6714 108.572 65.5861 106.931 65.7305C106.111 65.8268 105.243 65.6823 104.519 65.2009C103.361 65.8268 102.01 66.2119 100.707 66.0193C99.115 65.7786 97.6192 64.6232 97.2815 63.0346C96.8472 61.2052 97.3297 59.3758 97.8605 57.6427C96.2682 57.6427 94.7725 56.4392 94.3865 54.8987C93.6145 56.2948 94.1452 57.9316 94.869 59.2314C95.1585 59.6165 94.5795 59.761 94.29 59.7128C93.5662 59.6647 92.8425 59.4721 92.3117 59.0388C91.6362 57.9797 91.202 56.8725 91.1537 55.7171ZM188.522 46.5702C188.715 46.0888 189.391 46.0407 189.825 46.0407C190.404 46.0888 191.176 46.137 191.417 46.7147C190.983 48.2552 190.356 49.7476 189.97 51.2881C189.921 51.6732 189.584 51.9139 189.198 51.9621C188.426 52.1065 187.509 52.0583 186.882 51.5288C187.364 49.892 187.895 48.207 188.522 46.5702ZM207.967 43.8262C208.208 43.3929 208.787 42.9596 209.318 43.2485C210.042 43.6336 210.717 44.3076 210.862 45.126C210.283 45.5111 209.993 46.1851 209.704 46.7628C208.98 48.3515 208.498 50.0364 207.967 51.6732C207.822 52.2509 207.098 51.9139 206.761 51.6732C206.133 51.2399 205.313 50.5178 205.699 49.6994C206.278 47.6775 206.954 45.6556 207.967 43.8262ZM87.921 45.126C87.5832 46.1851 88.7412 46.9554 89.465 47.5331C89.7062 47.3405 89.9957 47.0998 90.237 46.9072C89.658 46.9554 88.9825 46.9072 88.5 46.5221C88.0175 46.2332 88.114 45.6074 87.921 45.126ZM183.697 40.2156C184.276 40.023 184.952 39.8786 185.482 40.2637C184.904 42.0931 184.373 43.9225 183.89 45.8C185.241 45.8 186.833 45.4148 187.847 46.5221C188.233 46.8109 187.847 47.2442 187.461 47.2442C186.11 47.2924 184.759 47.2924 183.408 47.5331C182.732 50.229 182.201 52.973 181.767 55.7171C181.478 57.9797 181.188 60.3868 181.912 62.6494C182.153 63.3234 182.539 64.2381 183.408 64.2862C184.18 64.0455 184.759 63.516 185.434 63.0827C184.807 60.3868 185.338 57.5946 186.013 54.9468C186.061 54.5136 186.399 54.2729 186.785 54.1766C187.557 54.0321 188.474 54.0803 189.053 54.658C188.281 57.2576 187.654 60.0498 188.184 62.7457C188.329 63.3234 188.474 64.0455 189.005 64.3825C189.68 64.4307 190.549 64.3344 191.031 64.9602C191.321 65.2009 190.935 65.4898 190.693 65.5861C189.101 66.0193 187.123 65.8268 186.061 64.4307C184.71 65.2009 183.215 65.923 181.622 65.8268C180.609 65.7786 179.692 65.1046 179.306 64.1899C178.534 62.4087 178.535 60.4349 178.679 58.5574C179.017 55.0431 179.692 51.5288 180.561 48.1108C176.604 48.9292 172.503 50.0846 168.45 49.0736C167.871 48.9292 167.051 48.6403 167.051 47.9663C167.389 47.5331 168.016 47.6775 168.498 47.7256C171.442 48.3033 174.337 47.4368 177.183 46.8591C178.486 46.5702 179.789 46.3295 181.092 46.137C181.526 44.5002 182.008 42.8634 182.491 41.2266C182.636 40.6489 183.215 40.4082 183.697 40.2156ZM171.635 54.8024C171.924 54.321 172.165 53.7914 172.214 53.2137C172.165 53.2137 172.069 53.1656 172.021 53.1175C171.49 53.5026 171.538 54.2247 171.635 54.8024ZM130.236 28.7098C133.372 26.399 137.425 25.2918 141.285 25.7732C144.084 26.1102 146.786 27.41 148.619 29.5764C150.212 31.3576 151.08 33.7165 151.128 36.1236C151.177 38.6751 150.26 41.1784 148.812 43.2485C146.738 46.3295 143.794 48.7366 140.562 50.566C141.478 54.8024 141.575 59.4721 139.452 63.3716C136.943 67.8968 130.381 69.1966 126.231 66.3563C123.674 64.6714 122.227 61.7347 121.937 58.75C121.937 58.3167 121.744 57.8353 121.937 57.3539C122.564 56.7281 123.578 56.5836 124.398 56.8243C124.832 56.9206 124.784 57.402 124.832 57.739C124.977 60.3386 125.99 63.0346 128.017 64.7677C129.464 65.9712 131.491 66.7896 133.372 66.2119C135.302 65.5861 136.605 63.853 137.377 62.0236C138.68 58.8463 138.535 55.2838 137.956 51.9621C136.943 52.3953 135.978 52.9249 134.868 53.2137C134 52.973 133.324 52.1546 133.131 51.2881C133.035 50.9511 133.421 50.8067 133.662 50.7104C134.916 50.229 136.123 49.6513 137.281 49.0736C136.364 45.3186 135.254 41.5635 135.495 37.6641C135.592 35.4015 136.123 32.8981 137.763 31.2132C138.535 30.828 139.548 30.7317 140.32 31.1169C140.32 31.2132 140.369 31.3576 140.417 31.4057C139.114 32.8981 138.632 34.92 138.39 36.8457C138.053 40.4563 139.018 44.0188 139.886 47.5331C142.492 45.8 145.001 43.778 146.786 41.1303C148.185 39.0602 149.102 36.5568 148.957 34.0535C148.861 32.3204 148.04 30.5392 146.641 29.4801C145.29 28.421 143.553 28.0358 141.864 27.9396C137.57 27.6989 133.179 29.4801 130.14 32.513C128.161 34.5831 126.81 37.1827 126.087 39.9267C125.218 43.2966 125.315 47.0516 126.859 50.229C127.003 50.5178 127.196 51.0955 126.666 51.0474C125.845 50.8548 125.122 50.2771 124.784 49.4587C122.95 45.3667 122.902 40.6007 124.398 36.4124C125.508 33.4277 127.534 30.6355 130.236 28.7098Z" fill="white"/>
</svg>
