<svg width="285" height="94" viewBox="0 0 285 94" fill="none" xmlns="http://www.w3.org/2000/svg">
<g clip-path="url(#clip0_2001_101)">
<path fill-rule="evenodd" clip-rule="evenodd" d="M211.006 35.2988H216.678V59.5768H211.006V50.2736H199.415V59.5768H193.793V35.2988H199.415V45.2488H211.006V35.2988Z" fill="white"/>
<path fill-rule="evenodd" clip-rule="evenodd" d="M236.329 35.2988H242V59.5768H236.329V50.2736H224.787V59.5768H219.115V35.2988H224.787V45.2488H236.329V35.2988Z" fill="white"/>
<path fill-rule="evenodd" clip-rule="evenodd" d="M75.4864 39.9256H68.4219V35.2988H88.3219V39.9256H81.2076V59.5768H75.4864V39.9256Z" fill="white"/>
<path fill-rule="evenodd" clip-rule="evenodd" d="M100.461 35C110.709 35 113.694 42.562 113.694 47.4375C113.694 52.3627 111.107 60.0242 100.461 59.875C89.1674 59.7755 86.8789 52.3627 86.8789 47.4375C86.8789 42.5122 90.0132 35 100.461 35ZM100.461 55.3477C105.933 55.298 108.023 51.0692 108.023 47.3877C108.023 43.756 105.635 39.4277 100.461 39.4277C95.2867 39.4277 92.6002 43.756 92.6002 47.3877C92.6002 51.0692 94.1922 55.4472 100.461 55.3477Z" fill="white"/>
<path fill-rule="evenodd" clip-rule="evenodd" d="M63.4472 45.0994C62.9995 41.1194 58.9698 39.6269 56.0345 39.6269C50.6118 39.6269 48.5223 44.1541 48.5223 47.3879C48.5223 50.6216 50.6118 55.5469 56.0345 55.5469C58.8205 55.5469 63.099 54.1539 63.6462 49.4276H69.1685C69.1685 56.3926 62.502 59.8254 55.7858 59.8254C49.965 59.7756 43 56.4424 43 47.6864C43 38.8806 49.368 35.0996 55.7858 35.0996C60.8603 35.0996 68.5715 36.9901 69.4172 45.0496H63.4472V45.0994Z" fill="white"/>
<path fill-rule="evenodd" clip-rule="evenodd" d="M131.803 35.2988H138.868L129.216 44.8508L139.614 59.5768H132.201L124.739 49.0796L120.411 53.2586V59.5768H114.689V35.2988H120.411V46.2438L131.803 35.2988Z" fill="white"/>
<path fill-rule="evenodd" clip-rule="evenodd" d="M158.918 35.2988H166.779V59.5768H161.107V42.4131H161.008L154.689 59.5768H151.704L145.287 42.6121V59.5768H139.615V35.2988H147.476L153.346 50.3731L158.918 35.2988Z" fill="white"/>
<path fill-rule="evenodd" clip-rule="evenodd" d="M179.364 41.2191L175.732 50.1741H183.294L179.364 41.2191ZM185.583 55.2486H173.643L171.951 59.5768H166.777L177.076 35.2988H183.095L193.792 59.5768H187.424L185.583 55.2486Z" fill="white"/>
</g>
<defs>
<clipPath id="clip0_2001_101">
<rect width="199" height="94" fill="white" transform="translate(43)"/>
</clipPath>
</defs>
</svg>
