<svg width="285" height="94" viewBox="0 0 285 94" fill="none" xmlns="http://www.w3.org/2000/svg">
<g clip-path="url(#clip0_2001_106)">
<path fill-rule="evenodd" clip-rule="evenodd" d="M120.942 18.2215C121.121 18.2572 121.228 18.3287 121.299 18.436C126.662 31.163 132.06 43.9257 137.423 56.6527C138.531 56.6527 139.675 56.6527 140.783 56.6527C140.783 56.903 140.783 57.189 140.783 57.4392C135.242 57.4392 129.701 57.4392 124.124 57.4392C124.124 57.189 124.124 56.903 124.124 56.6527C126.018 56.6527 127.877 56.6527 129.772 56.6527C128.199 52.9705 126.59 49.2882 125.017 45.606C120.692 45.606 116.366 45.606 112.004 45.606C110.682 49.2882 109.359 52.9705 108.036 56.6527C109.573 56.6527 111.111 56.6527 112.648 56.6527C112.648 56.903 112.648 57.189 112.648 57.4392C109.43 57.4392 106.249 57.4392 103.031 57.4392C103.031 57.189 103.031 56.903 103.031 56.6527C104.39 56.6527 105.748 56.6527 107.071 56.6527C111.718 43.8542 116.33 31.0557 120.942 18.2215ZM180.537 75.8148C180.966 75.8148 181.431 75.8148 181.86 75.8148C182.789 78.3887 183.755 80.9627 184.684 83.501C184.219 83.501 183.79 83.501 183.326 83.501C183.04 82.6787 182.754 81.8922 182.432 81.07C181.467 81.07 180.501 81.07 179.572 81.07C179.286 81.8922 179.036 82.6787 178.75 83.501C178.499 83.501 178.213 83.501 177.963 83.501C178.821 80.9627 179.679 78.3887 180.537 75.8148ZM108.215 75.8148C108.644 75.8148 109.109 75.8148 109.538 75.8148C110.503 78.3887 111.432 80.9628 112.362 83.5368C111.897 83.5368 111.468 83.5368 111.003 83.5368C110.717 82.7503 110.431 81.928 110.11 81.1415C109.144 81.1415 108.179 81.1415 107.214 81.1415C106.928 81.928 106.678 82.7503 106.392 83.5368C106.106 83.5368 105.855 83.5368 105.605 83.5368C106.499 80.9628 107.357 78.3887 108.215 75.8148ZM83.047 75.8148C83.9765 75.779 84.9417 75.779 85.8712 75.8505C86.908 75.922 87.8732 76.8515 87.8017 77.924C87.8017 78.925 86.8722 79.7472 85.8712 79.7115C86.7292 80.9627 87.5515 82.2497 88.3737 83.501C87.8732 83.501 87.4085 83.501 86.908 83.501C86.1572 82.357 85.4422 81.213 84.6915 80.0332C84.62 79.8902 84.477 79.783 84.3697 79.6757C84.334 80.927 84.3697 82.214 84.334 83.4652C83.905 83.4652 83.476 83.4652 83.047 83.4652C83.047 80.9627 83.047 78.3887 83.047 75.8148ZM70.9992 83.501C71.8572 80.9627 72.6795 78.3887 73.5375 75.8148C73.9665 75.8148 74.4312 75.8148 74.8602 75.8148C75.7897 78.3887 76.755 80.9627 77.6845 83.501C77.2197 83.501 76.7907 83.501 76.326 83.501C76.0042 82.6787 75.754 81.8922 75.4322 81.07C74.467 81.07 73.5017 81.07 72.5365 81.07C72.2505 81.8565 72.0002 82.6787 71.7142 83.4652C71.464 83.4652 71.178 83.4652 70.9277 83.4652C70.9992 83.501 70.9992 83.501 70.9992 83.501ZM144.215 11C144.537 11 144.859 11 145.18 11C145.18 29.161 145.18 47.322 145.18 65.4473C144.859 65.4473 144.537 65.4473 144.215 65.4473C144.215 47.322 144.215 29.161 144.215 11ZM209.781 75.8148C211.139 75.8148 212.533 75.8148 213.892 75.8148C213.892 76.0293 213.892 76.2437 213.892 76.494C212.962 76.494 211.997 76.494 211.068 76.494C211.068 77.3877 211.068 78.3172 211.068 79.211C211.997 79.211 212.891 79.211 213.82 79.211C213.82 79.4255 213.82 79.64 213.82 79.8545C212.891 79.8545 211.961 79.8545 211.068 79.8545C211.068 80.8555 211.068 81.8565 211.068 82.8575C212.033 82.8575 213.034 82.8575 213.999 82.8575C213.999 83.072 213.999 83.2865 213.999 83.5368C212.605 83.5368 211.175 83.5368 209.781 83.5368C209.781 80.9628 209.781 78.3887 209.781 75.8148ZM188.867 75.8505C189.26 75.8505 189.653 75.8505 190.047 75.8505C191.083 77.4235 192.12 78.9965 193.157 80.6052C193.336 80.8555 193.479 81.1415 193.729 81.2845C193.765 79.4612 193.729 77.6738 193.729 75.8505C193.943 75.8505 194.158 75.8505 194.408 75.8505C194.408 78.4245 194.408 80.9985 194.408 83.5725C194.122 83.5725 193.8 83.5725 193.514 83.5725C192.156 81.5347 190.833 79.4613 189.475 77.4235C189.475 79.4613 189.475 81.5347 189.475 83.5725C189.26 83.5725 189.046 83.5725 188.795 83.5725C188.867 80.9627 188.867 78.3887 188.867 75.8505ZM180.966 77.0302C180.573 78.1742 180.215 79.354 179.822 80.498C180.644 80.498 181.431 80.498 182.253 80.498C181.788 79.3183 181.395 78.1742 180.966 77.0302ZM167.917 75.8148C168.346 75.8148 168.74 75.8148 169.169 75.8148C169.169 76.9587 169.169 78.1027 169.169 79.211C170.241 79.211 171.278 79.211 172.35 79.211C172.35 78.067 172.35 76.923 172.35 75.8148C172.779 75.8148 173.208 75.8148 173.602 75.8148C173.602 78.3887 173.602 80.9627 173.602 83.501C173.173 83.501 172.744 83.501 172.35 83.501C172.35 82.2855 172.35 81.07 172.35 79.8545C171.278 79.8545 170.241 79.8545 169.169 79.8545C169.169 81.07 169.169 82.2855 169.169 83.501C168.74 83.501 168.346 83.501 167.917 83.501C167.917 80.9627 167.917 78.3887 167.917 75.8148ZM147.719 75.8505C148.219 75.8505 148.72 75.8505 149.22 75.8505C149.721 76.7085 150.221 77.5307 150.722 78.3887C151.294 77.5665 151.83 76.6728 152.402 75.8505C152.688 75.8505 152.938 75.8505 153.224 75.8505C152.509 76.923 151.83 77.9955 151.115 79.068C152.009 80.5695 152.867 82.0352 153.76 83.5368C153.26 83.5368 152.759 83.5368 152.259 83.5368C151.615 82.4642 150.972 81.356 150.328 80.2835C149.613 81.356 148.898 82.4642 148.219 83.5368C147.933 83.5368 147.647 83.5368 147.361 83.5368C148.219 82.214 149.077 80.927 149.935 79.6042C149.184 78.353 148.434 77.1018 147.719 75.8505ZM138.996 75.8148C140.39 75.8148 141.748 75.8148 143.107 75.8148C143.107 76.0293 143.107 76.2437 143.107 76.4582C142.177 76.4582 141.212 76.4582 140.283 76.4582C140.283 77.352 140.283 78.2815 140.283 79.1752C141.212 79.211 142.142 79.1752 143.071 79.1752C143.071 79.3897 143.071 79.6042 143.071 79.8187C142.142 79.8187 141.212 79.8187 140.283 79.8187C140.283 80.8197 140.283 81.8207 140.283 82.8217C141.284 82.8217 142.249 82.8217 143.25 82.8217C143.25 83.0362 143.25 83.2507 143.25 83.501C141.82 83.501 140.426 83.501 138.996 83.501C138.996 80.9627 138.996 78.3887 138.996 75.8148ZM127.734 75.8505C128.163 75.8505 128.592 75.8505 129.021 75.8505C129.021 78.4245 129.021 80.9628 129.021 83.5368C128.592 83.5368 128.163 83.5368 127.734 83.5368C127.734 80.9628 127.734 78.4245 127.734 75.8505ZM116.795 75.8505C117.188 75.8505 117.581 75.8505 117.975 75.8505C119.083 77.5308 120.227 79.2467 121.335 80.927C121.407 81.07 121.55 81.1772 121.693 81.2487C121.728 79.4255 121.693 77.638 121.728 75.8148C121.943 75.8148 122.157 75.8148 122.408 75.8148C122.408 78.3887 122.408 80.9628 122.408 83.5368C122.122 83.5368 121.836 83.5368 121.514 83.5368C120.155 81.499 118.833 79.4255 117.474 77.3877C117.474 79.4255 117.474 81.499 117.474 83.5368C117.26 83.5368 117.045 83.5368 116.831 83.5368C116.795 80.9628 116.795 78.3887 116.795 75.8505ZM107.464 80.498C108.286 80.498 109.073 80.498 109.895 80.498C109.466 79.354 109.037 78.1742 108.608 77.0302C108.215 78.1742 107.857 79.3183 107.464 80.498ZM93.629 75.8505C94.1652 75.8505 94.7015 75.8505 95.2735 75.8505C95.8812 77.5665 96.5247 79.3183 97.0967 81.0342C97.776 79.3183 98.4552 77.5665 99.1702 75.8505C99.6707 75.8505 100.171 75.8505 100.636 75.8505C100.636 78.4245 100.636 80.9628 100.636 83.5368C100.207 83.5368 99.778 83.5368 99.349 83.5368C99.349 81.4275 99.3847 79.354 99.3132 77.2805C99.063 77.638 98.9557 78.067 98.8127 78.4602C98.2765 79.8187 97.776 81.1772 97.2397 82.5357C97.0967 82.929 96.9895 83.3222 96.7392 83.644C96.5247 83.2865 96.4175 82.8932 96.2745 82.5357C95.7025 80.9627 95.1305 79.3897 94.5942 77.781C94.5227 77.6022 94.4512 77.4235 94.3082 77.2805C94.2725 79.354 94.3082 81.4632 94.2725 83.5368C94.058 83.5368 93.8435 83.5368 93.629 83.5368C93.629 80.9628 93.629 78.3887 93.629 75.8505ZM84.334 76.3152C84.334 77.352 84.334 78.353 84.334 79.354C84.9417 79.354 85.5852 79.3897 86.0857 78.9965C86.8007 78.3887 86.765 77.1732 86.05 76.6012C85.5495 76.2437 84.906 76.351 84.334 76.3152ZM72.7867 80.498C73.609 80.498 74.3955 80.498 75.2177 80.498C74.7887 79.354 74.3597 78.1742 73.9307 77.0302C73.5732 78.1742 73.18 79.3183 72.7867 80.498ZM199.306 77.352C200.271 75.3142 203.596 75.0283 204.883 76.923C204.954 76.9945 205.062 77.1732 205.133 77.2805C204.776 77.4235 204.418 77.5665 204.061 77.7452C203.775 77.1732 203.381 76.5655 202.774 76.351C202.023 76.1007 201.165 76.494 200.772 77.1375C200.2 78.0312 200.128 79.211 200.235 80.2477C200.343 81.213 200.807 82.214 201.701 82.6787C202.416 83.0005 203.238 82.929 204.025 82.8217C204.025 81.8207 204.025 80.8197 204.025 79.8545C204.418 79.8545 204.811 79.8545 205.205 79.8545C205.205 80.8912 205.205 81.928 205.205 82.9648C204.025 83.501 202.666 83.8585 201.379 83.5725C200.164 83.2865 199.27 82.214 198.984 81.0342C198.662 79.8187 198.734 78.4602 199.306 77.352ZM158.015 76.9945C158.873 75.779 160.589 75.3857 161.947 75.8505C162.662 76.1008 163.234 76.6727 163.592 77.3162C163.234 77.4592 162.877 77.6022 162.483 77.781C162.197 77.1732 161.768 76.5297 161.089 76.351C160.446 76.1722 159.802 76.5297 159.409 76.9945C158.765 77.781 158.551 78.8177 158.551 79.8187C158.587 80.8197 158.873 81.8923 159.588 82.6072C160.017 83.0362 160.66 83.2865 161.232 83.0362C161.84 82.786 162.233 82.214 162.519 81.642C162.912 81.785 163.27 81.9638 163.663 82.1068C162.698 83.8942 159.945 84.3232 158.515 82.8575C156.978 81.3202 156.799 78.7462 158.015 76.9945ZM149.399 19.0437C154.69 19.0437 159.981 19.0437 165.272 19.0437C165.272 19.294 165.272 19.58 165.272 19.8302C164.271 19.8302 163.27 19.8302 162.269 19.8302C163.985 23.87 165.701 27.874 167.417 31.9137C169.347 27.874 171.278 23.87 173.173 19.8302C171.886 19.8302 170.599 19.8302 169.312 19.8302C169.312 19.58 169.312 19.294 169.312 19.0437C172.529 19.0437 175.747 19.0437 178.964 19.0437C178.964 19.294 178.964 19.58 178.964 19.8302C177.355 19.8302 175.747 19.8302 174.174 19.8302C172.064 24.2275 169.991 28.6247 167.882 33.022C171.242 40.9227 174.603 48.7878 177.927 56.6885C179.393 56.6885 180.895 56.6885 182.36 56.6885C182.36 56.9388 182.36 57.2247 182.36 57.475C176.533 57.475 170.706 57.475 164.843 57.475C164.843 57.2247 164.843 56.9388 164.843 56.6885C166.666 56.6885 168.454 56.6885 170.277 56.6885C167.989 51.3975 165.701 46.0708 163.413 40.7798C160.875 46.0708 158.336 51.3975 155.798 56.6885C157.407 56.6885 159.016 56.6885 160.624 56.6885C160.624 56.9388 160.624 57.2247 160.624 57.475C156.799 57.475 152.974 57.475 149.149 57.475C149.149 57.2247 149.149 56.9388 149.149 56.6885C151.043 56.6885 152.938 56.6885 154.797 56.6885C157.514 51.0042 160.231 45.3557 162.912 39.6715C160.052 33.0577 157.228 26.444 154.368 19.8302C152.688 19.8302 151.008 19.8302 149.363 19.8302C149.399 19.5442 149.399 19.294 149.399 19.0437ZM117.903 29.161C116.044 34.3805 114.149 39.6 112.29 44.8195C116.402 44.8195 120.549 44.8195 124.66 44.8195C122.408 39.6 120.191 34.3805 117.903 29.161Z" fill="white"/>
</g>
<defs>
<clipPath id="clip0_2001_106">
<rect width="143" height="94" fill="white" transform="translate(71)"/>
</clipPath>
</defs>
</svg>
